<svg xmlns="http://www.w3.org/2000/svg" width="365.675" height="64.001" viewBox="0 0 365.675 64.001">
  <g id="down" transform="translate(-501.36 -704)">
    <path id="Контур_14098" data-name="Контур 14098" d="M-122.965-9292H-488.64c.218-.011,25.585-1.139,29.132-1.426,32.109-2.569,52.716-17.336,72.646-31.615l.085-.062c5.285-3.785,10.749-7.7,16.349-11.313a144.306,144.306,0,0,1,17.739-9.92,102.606,102.606,0,0,1,20.376-7.012A107.643,107.643,0,0,1-308-9356c37.207,0,63.079,16.788,88.1,33.022l.019.013C-196.137-9307.556-173.709-9293-143-9293l20.036,1Z" transform="translate(990 10060)" fill="#eff0f5"/>
    <path id="Контур_377" data-name="Контур 377" d="M142,22c71.75,0,101.131,63,165,63H-20C56.3,85,70.25,22,142,22Z" transform="translate(540 683)" fill="#fff"/>
  </g>
</svg>
