<svg xmlns="http://www.w3.org/2000/svg" width="80.848" height="80.847" viewBox="0 0 80.848 80.847">
  <g id="zuegg_logo" transform="translate(-628.576 -12.576)">
    <circle id="Эллипс_5" data-name="Эллипс 5" cx="40.424" cy="40.424" r="40.424" transform="translate(628.576 12.576)" fill="#192a67"/>
    <g id="Сгруппировать_104" data-name="Сгруппировать 104" transform="translate(634.094 42.596)">
      <path id="Контур_380" data-name="Контур 380" d="M-7214.716-56.258a1.2,1.2,0,0,1,.782-1.143.945.945,0,0,1-.385-.765c0-.583.516-1.043,1.334-1.043s1.329.46,1.329,1.043a.923.923,0,0,1-.385.758,1.224,1.224,0,0,1,.784,1.15c0,.751-.609,1.385-1.728,1.385S-7214.716-55.507-7214.716-56.258Zm1.073-.087a.589.589,0,0,0,.658.6.593.593,0,0,0,.653-.6.589.589,0,0,0-.653-.59A.6.6,0,0,0-7213.643-56.345Zm.261-1.7a.371.371,0,0,0,.4.367.371.371,0,0,0,.393-.367.367.367,0,0,0-.393-.361A.367.367,0,0,0-7213.382-58.041Zm11.271.994a2.186,2.186,0,0,1,2.266-2.161,2.186,2.186,0,0,1,2.268,2.161,2.192,2.192,0,0,1-2.268,2.168A2.192,2.192,0,0,1-7202.111-57.047Zm1.155,0a1.089,1.089,0,0,0,1.111,1.186,1.09,1.09,0,0,0,1.113-1.186,1.086,1.086,0,0,0-1.113-1.18A1.084,1.084,0,0,0-7200.956-57.047Zm-18.028,2.112v-3.275h-.6v-.95h1.731v4.224Zm11.2,0,.95-1.254a1.5,1.5,0,0,1-1.653-1.466,1.631,1.631,0,0,1,1.76-1.565,1.614,1.614,0,0,1,1.733,1.54,1.916,1.916,0,0,1-.441,1.168l-1.181,1.578Zm.422-2.721a.623.623,0,0,0,.64.653.623.623,0,0,0,.639-.653.628.628,0,0,0-.639-.646A.626.626,0,0,0-7207.359-57.656Zm-21.917,2.721v-4.223h1.13v3.273h1.794v.95Zm-4.1,0-.161-.36h-1.59l-.155.36h-1.105l2.057-4.3c.018-.043.056-.043.074,0l2.05,4.3Zm-1.392-1.2h.858l-.436-.982Zm-7.882,1.2v-4.223h1.633a2.018,2.018,0,0,1,2.137,2.112,2.017,2.017,0,0,1-2.137,2.111Zm1.13-.955h.379a1.054,1.054,0,0,0,1.105-1.155,1.054,1.054,0,0,0-1.105-1.155h-.379ZM-7199.6-71.8a7.2,7.2,0,0,1,7.2-7.2,7.188,7.188,0,0,1,5.974,3.187l.114.167-3.294,2.223-.118-.176a3.226,3.226,0,0,0-2.676-1.428,3.229,3.229,0,0,0-3.225,3.225,3.228,3.228,0,0,0,3.225,3.222,3.228,3.228,0,0,0,2.186-.854h-3v-3.54h7.9s.05.246.06.329c0,.022.051.554.051.843a7.2,7.2,0,0,1-7.195,7.195A7.2,7.2,0,0,1-7199.6-71.8Zm-15.68,0a7.2,7.2,0,0,1,7.195-7.2,7.189,7.189,0,0,1,5.976,3.187l.113.167-3.292,2.223-.12-.176a3.223,3.223,0,0,0-2.676-1.428,3.227,3.227,0,0,0-3.223,3.225,3.226,3.226,0,0,0,3.223,3.222,3.233,3.233,0,0,0,2.188-.854h-3.007v-3.54h7.9s.05.246.06.329c0,.022.052.554.052.843a7.206,7.206,0,0,1-7.2,7.195A7.2,7.2,0,0,1-7215.28-71.8Zm-25.529,1.187V-78.68h4.269v8.066a1.741,1.741,0,0,0,1.739,1.739,1.741,1.741,0,0,0,1.738-1.739V-78.68h4.27v8.066a6.015,6.015,0,0,1-6.008,6.008A6.014,6.014,0,0,1-7240.809-70.614Zm13.736,5.688V-78.679h10.785v3.834h-6.951v1.393h6.052v3.3h-6.052v1.393h6.951v3.834Zm-27.948,0,5.753-9.918h-4.911v-3.834h11.921l-5.626,9.5h5.355v4.255Z" transform="translate(7255.021 79)" fill="#fff"/>
    </g>
  </g>
</svg>
