<svg xmlns="http://www.w3.org/2000/svg" width="136" height="136" viewBox="0 0 136 136">
  <g id="Сгруппировать_25669" data-name="Сгруппировать 25669" transform="translate(-151 -122)">
    <circle id="Эллипс_53" data-name="Эллипс 53" cx="68" cy="68" r="68" transform="translate(151 122)" fill="#8cb125"/>
    <path id="Контур_14094" data-name="Контур 14094" d="M2.432-21.258H5.2v5.186h5.986v-5.186h2.767v13.53H11.185v-5.842H5.2v5.842H2.432ZM23.444-7.482A7.233,7.233,0,0,1,19.836-8.4a6.961,6.961,0,0,1-2.6-2.532,6.793,6.793,0,0,1-.963-3.557,6.793,6.793,0,0,1,.963-3.557,6.961,6.961,0,0,1,2.6-2.532,7.233,7.233,0,0,1,3.608-.922,7.29,7.29,0,0,1,3.618.922,7.017,7.017,0,0,1,2.624,2.532,6.739,6.739,0,0,1,.974,3.557,6.739,6.739,0,0,1-.974,3.557A7.017,7.017,0,0,1,27.062-8.4,7.29,7.29,0,0,1,23.444-7.482Zm.021-2.562a4.43,4.43,0,0,0,2.224-.564,4.024,4.024,0,0,0,1.558-1.578,4.668,4.668,0,0,0,.564-2.306,4.626,4.626,0,0,0-.564-2.286,4.1,4.1,0,0,0-1.558-1.589,4.368,4.368,0,0,0-2.224-.574,4.414,4.414,0,0,0-2.234.564A4.045,4.045,0,0,0,19.682-16.8a4.668,4.668,0,0,0-.564,2.306,4.668,4.668,0,0,0,.564,2.306,4.045,4.045,0,0,0,1.548,1.578A4.414,4.414,0,0,0,23.465-10.045Zm17.609-5a3.72,3.72,0,0,1,1.763,1.261,3.378,3.378,0,0,1,.635,2.081,3.839,3.839,0,0,1-.564,2.06A3.78,3.78,0,0,1,41.33-8.231a5.131,5.131,0,0,1-2.306.5H33v-13.53h4.8a4.969,4.969,0,0,1,2.214.482,3.687,3.687,0,0,1,1.527,1.332,3.558,3.558,0,0,1,.543,1.958A3.236,3.236,0,0,1,41.074-15.047ZM35.662-18.88v3.1h1.906a1.864,1.864,0,0,0,1.3-.42,1.463,1.463,0,0,0,.461-1.138,1.431,1.431,0,0,0-.461-1.127,1.894,1.894,0,0,0-1.3-.41Zm3.157,8.774a2.068,2.068,0,0,0,1.414-.451,1.579,1.579,0,0,0,.512-1.25,1.586,1.586,0,0,0-.512-1.24,2.038,2.038,0,0,0-1.414-.461H35.662v3.4ZM57.33-21.5V-7.728H54.562v-8.384l-7.933,8.63h-.9V-21.258h2.767v8.3L56.407-21.5Zm3.1.246h2.767v5.186h5.986v-5.186h2.767v13.53H69.179v-5.842H63.193v5.842H60.425ZM83.61-7.728l-5.8-7.052v7.052H75.041v-13.53h2.767v6.273l5.166-6.273h3.3l-5.186,6.375,5.863,7.154ZM96.75-9.491H91.216l-.758,1.763H87.485L93.532-21.5h.922l6.027,13.776H97.509Zm-2.767-6.847-1.8,4.571h3.608Z" transform="translate(167.769 197.182)" fill="#fff"/>
    <path id="Контур_14095" data-name="Контур 14095" d="M9.117-14.381v8.167H8.168v-5.757L5.6-8.49H5.259L2.678-12v5.781H1.729v-8.167H2.07L5.417-9.744l3.372-4.637Zm7.108,6.536H12.282L11.6-6.214h-1l3.481-8.167h.353l3.481,8.167h-1.01Zm-1.972-4.808L12.647-8.7H15.86Zm11.088-1.594v8.033h-.949V-13.4h-3.14A33.136,33.136,0,0,1,20.9-9.068a5.5,5.5,0,0,1-.773,2.252,1.588,1.588,0,0,1-1.345.688,1.182,1.182,0,0,1-.475-.085v-.828a.469.469,0,0,0,.116.024,1.633,1.633,0,0,0,.213.012q.889,0,1.26-1.5a22.715,22.715,0,0,0,.444-4.534l.024-1.2ZM31.184-6.08a4.148,4.148,0,0,1-2.1-.548,4.035,4.035,0,0,1-1.509-1.5,4.112,4.112,0,0,1-.554-2.1,4.1,4.1,0,0,1,.554-2.106,4.049,4.049,0,0,1,1.509-1.5,4.148,4.148,0,0,1,2.1-.548,4.158,4.158,0,0,1,2.094.548,4.082,4.082,0,0,1,1.521,1.5,4.068,4.068,0,0,1,.56,2.106,4.068,4.068,0,0,1-.56,2.106,4.082,4.082,0,0,1-1.521,1.5A4.158,4.158,0,0,1,31.184-6.08Zm.012-.876a3.12,3.12,0,0,0,1.619-.432,3.076,3.076,0,0,0,1.144-1.181,3.4,3.4,0,0,0,.414-1.674,3.376,3.376,0,0,0-.414-1.661,3.032,3.032,0,0,0-1.144-1.175A3.154,3.154,0,0,0,31.2-13.5a3.177,3.177,0,0,0-1.631.426,3.044,3.044,0,0,0-1.144,1.168,3.366,3.366,0,0,0-.414,1.668,3.4,3.4,0,0,0,.414,1.674,3.076,3.076,0,0,0,1.144,1.181A3.142,3.142,0,0,0,31.2-6.956Zm9.263-7.291h.949v8.033h-.949Zm6.22,8.033h-1.2l-3.956-4.309,3.615-3.725H46.35l-3.591,3.725Zm6.378-1.631H49.113l-.682,1.631h-1l3.481-8.167h.353l3.481,8.167h-1.01Zm-1.972-4.808L49.478-8.7h3.213Zm11.088-1.594v8.033h-.949V-13.4h-3.14a33.136,33.136,0,0,1-.353,4.327,5.5,5.5,0,0,1-.773,2.252,1.588,1.588,0,0,1-1.345.688,1.182,1.182,0,0,1-.475-.085v-.828a.469.469,0,0,0,.116.024,1.633,1.633,0,0,0,.213.012q.889,0,1.26-1.5a22.714,22.714,0,0,0,.444-4.534l.024-1.2ZM68.016-6.08a4.148,4.148,0,0,1-2.1-.548,4.035,4.035,0,0,1-1.509-1.5,4.112,4.112,0,0,1-.554-2.1,4.1,4.1,0,0,1,.554-2.106,4.049,4.049,0,0,1,1.509-1.5,4.148,4.148,0,0,1,2.1-.548,4.158,4.158,0,0,1,2.094.548,4.082,4.082,0,0,1,1.521,1.5,4.068,4.068,0,0,1,.56,2.106,4.068,4.068,0,0,1-.56,2.106,4.082,4.082,0,0,1-1.521,1.5A4.158,4.158,0,0,1,68.016-6.08Zm.012-.876a3.12,3.12,0,0,0,1.619-.432,3.076,3.076,0,0,0,1.144-1.181,3.4,3.4,0,0,0,.414-1.674,3.376,3.376,0,0,0-.414-1.661,3.032,3.032,0,0,0-1.144-1.175,3.154,3.154,0,0,0-1.619-.426,3.177,3.177,0,0,0-1.631.426,3.044,3.044,0,0,0-1.144,1.168,3.366,3.366,0,0,0-.414,1.668,3.4,3.4,0,0,0,.414,1.674A3.076,3.076,0,0,0,66.4-7.388,3.142,3.142,0,0,0,68.028-6.956Zm5.855-7.291h2.824a2.923,2.923,0,0,1,1.357.3,2.181,2.181,0,0,1,.895.828,2.291,2.291,0,0,1,.316,1.2,2.347,2.347,0,0,1-.316,1.217,2.168,2.168,0,0,1-.895.834,2.923,2.923,0,0,1-1.357.3H74.832v3.359h-.949Zm2.8,3.822a1.633,1.633,0,0,0,1.187-.408,1.433,1.433,0,0,0,.42-1.077,1.438,1.438,0,0,0-.42-1.071,1.619,1.619,0,0,0-1.187-.414h-1.85v2.97Zm10.7-3.956v8.167h-.949v-6.232L81.2-6.08h-.341v-8.167h.949v6.232l5.234-6.366Zm8.739,0v8.167H95.17v-6.232L89.937-6.08H89.6v-8.167h.949v6.232l5.234-6.366Zm-3.274-.669a1.757,1.757,0,0,1-1.333-.529,1.952,1.952,0,0,1-.505-1.406v-.3H91.8v.316a1.34,1.34,0,0,0,.274.895.958.958,0,0,0,.773.323.986.986,0,0,0,.779-.316,1.316,1.316,0,0,0,.28-.9v-.316H94.7v.3a1.952,1.952,0,0,1-.505,1.406A1.772,1.772,0,0,1,92.846-15.05Zm5.66.8h1.132l-.17,5.489h-.779Zm.572,8.167a.749.749,0,0,1-.542-.219.733.733,0,0,1-.225-.548.733.733,0,0,1,.225-.548.749.749,0,0,1,.542-.219.743.743,0,0,1,.548.219.743.743,0,0,1,.219.548.743.743,0,0,1-.219.548A.743.743,0,0,1,99.077-6.08Z" transform="translate(168.021 210.401)" fill="#fff"/>
    <path id="Контур_14096" data-name="Контур 14096" d="M38.5,1.375q-15.125,0-22.688-12.188T8.25-42q0-18.875,7.625-30.375T38.5-83.875q15,0,22.563,11.438T68.625-42q0,19-7.5,31.188T38.5,1.375Zm0-9q10.375,0,15.187-9.25t4.813-25q0-15.5-4.75-24.25T38.5-74.875q-10.5,0-15.313,8.75t-4.813,24.25q0,15.75,4.875,25T38.5-7.625Z" transform="translate(180 231)" fill="#fff" opacity="0.19"/>
  </g>
</svg>
