<svg xmlns="http://www.w3.org/2000/svg" xmlns:xlink="http://www.w3.org/1999/xlink" width="92.874" height="21.194" viewBox="0 0 92.874 21.194">
  <defs>
    <clipPath id="clip-path">
      <rect id="Прямоугольник_1357" data-name="Прямоугольник 1357" width="92.874" height="21.194" fill="none"/>
    </clipPath>
  </defs>
  <g id="Сгруппировать_25684" data-name="Сгруппировать 25684" clip-path="url(#clip-path)">
    <path id="Контур_14107" data-name="Контур 14107" d="M155.612,39.394H167.1c0,1.061,0,2.122,0,3.183q-2.028,0-4.056,0v9.633h-3.311q0-4.816,0-9.633-2.059,0-4.118,0Zm-13.934,0h3.312q0,2.357,0,4.715c1.922.006,3.845,0,5.767,0q0-2.358,0-4.717h3.312V52.209h-3.312q0-2.5,0-4.994c-1.921,0-3.842,0-5.762,0-.009,1.665,0,3.331,0,5h-3.312Zm-27.218,0c3.535-.007,7.07,0,10.606,0V52.209h-3.311q0-4.817,0-9.633h-4.091c-.054,1.51-.051,3.023-.2,4.528a12.431,12.431,0,0,1-.431,2.226,5.109,5.109,0,0,1-.782,1.651,3.285,3.285,0,0,1-1.189.99,5,5,0,0,1-2.1.445,2.823,2.823,0,0,1-1.179-.212c0-.911,0-1.822,0-2.733a2.045,2.045,0,0,0,.726.092,1.4,1.4,0,0,0,.906-.273,1.729,1.729,0,0,0,.508-.839,17.032,17.032,0,0,0,.448-4.539c.029-1.506.065-3.011.089-4.517m59.387,2.842a3.4,3.4,0,0,0-2.752,2.468,4.36,4.36,0,0,0-.015,2.126,3.4,3.4,0,0,0,1.174,1.84,3.356,3.356,0,0,0,1.707.7,3.909,3.909,0,0,0,2.136-.31,3.466,3.466,0,0,0,1.449-1.33,3.733,3.733,0,0,0,.5-1.981,3.552,3.552,0,0,0-.666-2.13,3.638,3.638,0,0,0-1.369-1.125,3.93,3.93,0,0,0-2.16-.258m-1.542-3a6.379,6.379,0,0,1,2.421-.152,5.128,5.128,0,0,1,1.955.629,4.865,4.865,0,0,1,1.231,1.022V39.394h3.312v8.992a1.415,1.415,0,0,0,.2.867.9.9,0,0,0,.649.357,1.711,1.711,0,0,0,1.049-.2c0,.911,0,1.821,0,2.732a4.784,4.784,0,0,1-2.186.426,3.3,3.3,0,0,1-1.925-.551,2.562,2.562,0,0,1-.912-1.388,4.759,4.759,0,0,1-1.317,1.2,5.073,5.073,0,0,1-2.017.684,6.58,6.58,0,0,1-2.324-.107,5.983,5.983,0,0,1-3.087-1.9,6.707,6.707,0,0,1-1.609-3.4,7.653,7.653,0,0,1,.444-4.147,6.842,6.842,0,0,1,2.222-2.8,5.664,5.664,0,0,1,1.891-.921m-39.058,2.834a3.393,3.393,0,0,0-2.006.977,3.277,3.277,0,0,0-.784,1.5,10.124,10.124,0,0,0,3.209.448,4.042,4.042,0,0,0,1.634-.383,1.482,1.482,0,0,0,.748-.782,1.215,1.215,0,0,0-.218-1.174,1.724,1.724,0,0,0-.816-.5,4.132,4.132,0,0,0-1.767-.081M132.97,39.1a9.95,9.95,0,0,1,2.879.093,5.519,5.519,0,0,1,2.614,1.14,3.474,3.474,0,0,1,1.15,1.876,3.725,3.725,0,0,1-.312,2.56,3.837,3.837,0,0,1-1.135,1.287,5.826,5.826,0,0,1-2,.912,9.419,9.419,0,0,1-2.952.237,12.886,12.886,0,0,1-2.826-.53,3.662,3.662,0,0,0,.456,1.285,3,3,0,0,0,1.175,1.11,4.837,4.837,0,0,0,2.448.486,5.132,5.132,0,0,0,2.2-.635,3.682,3.682,0,0,0,.7-.5c.689.679,1.362,1.375,2.05,2.055a5.964,5.964,0,0,1-1.417,1.164,6.509,6.509,0,0,1-2.07.767,8.763,8.763,0,0,1-4.64-.353,6.928,6.928,0,0,1-2.183-1.284,5.915,5.915,0,0,1-1.613-2.309,7.648,7.648,0,0,1-.44-3.371,6.686,6.686,0,0,1,.927-2.985,6,6,0,0,1,1.941-1.946A7.507,7.507,0,0,1,132.97,39.1" transform="translate(-90.251 -31.513)" fill="#003c96" fill-rule="evenodd"/>
    <path id="Контур_14108" data-name="Контур 14108" d="M16.9.011A7.926,7.926,0,1,1,14.3.6,7.965,7.965,0,0,1,16.9.011m.02,3.982a3.973,3.973,0,0,0-3.407,2.844,3.974,3.974,0,0,0,3.92,5.084,3.947,3.947,0,0,0,1.908-.543,3.976,3.976,0,0,0-2.421-7.385" transform="translate(-7.575 0)" fill="#ffb900" fill-rule="evenodd"/>
    <path id="Контур_14109" data-name="Контур 14109" d="M33.573,20.645A3.973,3.973,0,1,1,32,21.155a3.979,3.979,0,0,1,1.577-.511" transform="translate(-24.228 -16.651)" fill="#003c96" fill-rule="evenodd"/>
    <path id="Контур_14110" data-name="Контур 14110" d="M0,76.536a10.564,10.564,0,0,1,4.722,1.106,10.641,10.641,0,0,1,4.284,3.9,11.322,11.322,0,0,1,.74,1.41l-.032.036A10.606,10.606,0,0,1,0,76.536m12.3,3.316a7.905,7.905,0,0,1,4.693-1.529A7.951,7.951,0,0,1,10.9,82.9a8.272,8.272,0,0,1-1.142.083.846.846,0,0,1,.079-.19A7.977,7.977,0,0,1,12.3,79.852" transform="translate(0 -61.794)" fill="#00be64" fill-rule="evenodd"/>
  </g>
</svg>
