<svg xmlns="http://www.w3.org/2000/svg" viewBox="0 0 489.52 237.77"><defs><style>.cls-1{fill:none;}.cls-2,.cls-3{fill:#003d7c;}.cls-3,.cls-4{fill-rule:evenodd;}.cls-4{fill:#ffe500;}</style></defs><g id="Слой_2" data-name="Слой 2"><g id="Layer_1" data-name="Layer 1"><polyline class="cls-1" points="489.52 237.77 489.52 0 0 0 0 237.77"/><rect class="cls-2" x="27.65" y="35.31" width="434.13" height="116.37"/><path class="cls-3" d="M102.17,129.3l15-45v45h22.39V57.69H109.34L94.79,93.5,80.24,57.69H50V129.3H72.41v-45l15.1,45m255.16-27.84c7-.56,13.94-5.31,13.94-13.11V70.67c-.81-8.07-6.86-12.43-14-13H285V129.3h22.38V101.46h8.91l14.54,27.84h25.74l-17.32-27.84Zm-6.2-18.57c0,1.55-.38,2.91-3.16,2.91H307.38V71.74h26c3.16,0,3.13,2.06,3.13,3.36ZM206.68,71.79V57.69H148.49V129.3l59,0,0-14.08H170.93V99.87h35.75V85.8H170.93v-14Zm28,0H213.39V57.69h64.9v14.1H257V129.3H234.65Zm192.46-14.1H379.55c-7.14.58-13.18,4.2-14,12.31v46.32c.81,8.11,6.85,12.4,14,13h47.56c7.14-.58,13.17-4.87,14-13V70C440.28,61.89,434.25,58.27,427.11,57.69ZM418.71,112a3.27,3.27,0,0,1-3.16,3.2H391.31a3.51,3.51,0,0,1-3.37-3.2V74.58c.1-.8.49-2.52,3.24-2.79h24.38c2.76.27,3.05,2,3.15,2.79Z"/><rect class="cls-2" x="27.65" y="35.31" width="434.13" height="116.37"/><path class="cls-4" d="M102.17,129.3l15-45v45h22.39V57.69H109.34L94.79,93.5,80.24,57.69H50V129.3H72.41v-45l15.1,45m255.16-27.84c7-.56,13.94-5.31,13.94-13.11V70.67c-.81-8.07-6.86-12.43-14-13H285V129.3h22.38V101.46h8.91l14.54,27.84h25.74l-17.32-27.84Zm-6.2-18.57c0,1.55-.38,2.91-3.16,2.91H307.38V71.74h26c3.16,0,3.13,2.06,3.13,3.36ZM206.68,71.79V57.69H148.49V129.3l59,0,0-14.08H170.93V99.87h35.75V85.8H170.93v-14Zm28,0H213.39V57.69h64.9v14.1H257V129.3H234.65Zm192.46-14.1H379.55c-7.14.58-13.18,4.2-14,12.31v46.32c.81,8.11,6.85,12.4,14,13h47.56c7.14-.58,13.17-4.87,14-13V70C440.28,61.89,434.25,58.27,427.11,57.69ZM418.71,112a3.27,3.27,0,0,1-3.16,3.2H391.31a3.51,3.51,0,0,1-3.37-3.2V74.58c.1-.8.49-2.52,3.24-2.79h24.38c2.76.27,3.05,2,3.15,2.79Z"/><path class="cls-2" d="M151,186.51v.65c0,2.6-1.19,2.78-3.64,2.78-3.56,0-3.7-1.27-3.7-4.58v-3.47c0-3.17.32-4.21,3.7-4.21,2,0,3.4.15,3.61,2.14v.86h6.1v-.86c-.12-6.67-3-7.29-9.06-7.29-6.51,0-10.45,1.07-10.45,8.41v5.74c0,8.12,4.41,8.41,10.45,8.41,2.57,0,5,0,7.05-1.63s2-3.87,2-6.3v-.65"/><path class="cls-3" d="M170.43,194.91h5.1v-9.7c0-5.36-2.2-6-7.41-6-3.63,0-7.16,0-7.16,4.79h5.09c0-1.39.8-1.68,2.07-1.68,2.23,0,2.31.91,2.31,2.36v2.46h-.23c-.56-1.77-2.78-1.75-4.23-1.75-3.68,0-5.63,1.16-5.63,4.89,0,4,2.07,4.82,5.63,4.82,1.77,0,4.08-.35,4.46-2.48h.18m-3-4.12c1.66,0,2.78.12,2.78,1.42,0,1.63-.65,1.9-2.78,1.9-.77,0-2.22,0-2.22-1.69C165.43,188.7,166.41,188.49,167.65,188.49Z"/><path class="cls-2" d="M193.6,183.78V183c0-3.81-4-3.84-6.86-3.84-4.32,0-7.61.08-7.61,5.09,0,3.17,1.15,4.62,7.61,4.62,1.77,0,2.66,0,2.66,1.53,0,1.22-.35,1.37-2.66,1.37-1.24,0-2.52,0-2.52-1.75h-5.09c0,5.12,3.58,5,7.61,5s7.61-.68,7.61-5.24c0-4.35-2.35-4.64-7.61-4.77-2.61-.05-2.67-.58-2.67-1.35s0-1.25,2.67-1.25c.8,0,1.89,0,2.07,1.3"/><path class="cls-2" d="M203.1,172.71H198v22.2h5.09v-8.55c0-1.9.39-3.26,2.67-3.26,1.65,0,2.07.74,2.1,2.26v9.55H213V184.17c0-3.34-1.57-5-5-5-2.39,0-3.9.62-4.64,3.08h-.21"/><path class="cls-3" d="M247.22,194.91l2.64-3.16-2.46-2.22a4.92,4.92,0,0,0,.6-2.17V183h-4.71V186l-5.45-4.86a2.71,2.71,0,0,1-1.19-2.19c0-1.6.45-2,2-2,1.21,0,1.86.08,2.22.47s.41,1.06.39,2.31h5.08V178.6c.07-5.35-2.66-6.07-7.69-6.07s-7.4.87-7.4,5.95a4,4,0,0,0,1.68,3.77c-3.37.06-3.93,3-3.93,5.8,0,6.45,4,7,9.65,7,2.43,0,5.09,0,6.57-2m-3.52-3.17a7,7,0,0,1-3,.48c-2.69,0-4.2.05-4.2-2.93,0-1.1-.07-2.49,1.36-2.64Z"/><path class="cls-2" d="M277.46,186.51v.65c0,2.6-1.19,2.78-3.64,2.78-3.55,0-3.7-1.27-3.7-4.58v-3.47c0-3.17.32-4.21,3.7-4.21,2,0,3.4.15,3.61,2.14v.86h6.1v-.86c-.12-6.67-3-7.29-9.06-7.29-6.51,0-10.45,1.07-10.45,8.41v5.74c0,8.12,4.41,8.41,10.45,8.41,2.58,0,5,0,7-1.63s2-3.87,2-6.3v-.65"/><path class="cls-3" d="M296.86,194.91H302v-9.7c0-5.36-2.2-6-7.41-6-3.64,0-7.16,0-7.16,4.79h5.09c0-1.39.8-1.68,2.07-1.68,2.23,0,2.31.91,2.31,2.36v2.46h-.23c-.57-1.77-2.78-1.75-4.23-1.75-3.68,0-5.63,1.16-5.63,4.89,0,4,2.07,4.82,5.63,4.82,1.77,0,4.08-.35,4.46-2.48H297m-3-4.12c1.66,0,2.78.12,2.78,1.42,0,1.63-.65,1.9-2.78,1.9-.77,0-2.22,0-2.22-1.69C291.86,188.7,292.84,188.49,294.08,188.49Z"/><path class="cls-2" d="M314.53,186.15h4.59v-1.21c0-2.84-.3-5.74-3.85-5.74a3.71,3.71,0,0,0-3.91,2.45h-.21v-2.27h-4.94v15.53h5.09v-9.32c0-1.27.36-2.49,1.9-2.49s1.33,1.22,1.33,2.31"/><path class="cls-2" d="M330.84,186.15h4.58v-1.21c0-2.84-.29-5.74-3.84-5.74a3.71,3.71,0,0,0-3.91,2.45h-.2v-2.27h-5v15.53h5.09v-9.32c0-1.27.36-2.49,1.9-2.49s1.33,1.22,1.33,2.31"/><path class="cls-2" d="M353.36,179.38h-5.2L345.64,192h-.06l-3.08-12.63h-5.33l4.62,15.53h2.78c-.09,1.78-.53,3.35-2.66,3.35a8.67,8.67,0,0,1-.89-.06v3.52c.59,0,1.16.09,1.75.09,4.32,0,5.83-1.45,6.69-5.53"/></g></g></svg>