<svg xmlns="http://www.w3.org/2000/svg" width="128.982" height="28.945" viewBox="0 0 128.982 28.945">
  <g id="Perekrestok" transform="translate(0.5 0.5)">
    <g id="Сгруппировать_12474" data-name="Сгруппировать 12474" transform="translate(34.592 14.605)">
      <path id="Контур_7760" data-name="Контур 7760" d="M692.755,458.984a3.157,3.157,0,0,1-3.348,3.117l-4.789-.02V451.333l4.467.019a3.073,3.073,0,0,1,3.271,3.025,2.66,2.66,0,0,1-1.014,2.15A2.724,2.724,0,0,1,692.755,458.984Zm-6.017-5.671v2.365l2.348.02a1.183,1.183,0,0,0,0-2.365Zm3.914,5.532a1.215,1.215,0,0,0-1.244-1.259l-2.67-.02V460.1l2.67.02A1.218,1.218,0,0,0,690.652,458.846Z" transform="translate(-684.619 -451.333)" fill="#044046"/>
      <path id="Контур_7761" data-name="Контур 7761" d="M727.727,471.039h-1.981v-5.82H722.69v5.82h-1.981v-7.678h7.018Z" transform="translate(-711.436 -460.27)" fill="#044046"/>
      <path id="Контур_7762" data-name="Контур 7762" d="M762.021,466.578a3.886,3.886,0,0,1-3.747,4.054,2.984,2.984,0,0,1-2.488-1.121v3.977H753.8V462.739h1.981v.906a2.984,2.984,0,0,1,2.488-1.121A3.886,3.886,0,0,1,762.021,466.578Zm-1.981,0a2.127,2.127,0,1,0-2.134,2.165A2.064,2.064,0,0,0,760.039,466.578Z" transform="translate(-736.028 -459.648)" fill="#044046"/>
      <path id="Контур_7763" data-name="Контур 7763" d="M788.908,466.578a4.061,4.061,0,1,1,4.054,4.054A4.011,4.011,0,0,1,788.908,466.578Zm6.142,0a2.081,2.081,0,1,0-2.088,2.119A2.042,2.042,0,0,0,795.05,466.578Z" transform="translate(-762.111 -459.648)" fill="#044046"/>
      <path id="Контур_7764" data-name="Контур 7764" d="M828.9,471.039l-2.795-3.486v3.486h-1.981v-7.678H826.1v3.378l2.641-3.378h2.365l-3.087,3.793,3.179,3.885Z" transform="translate(-788.276 -460.27)" fill="#044046"/>
    </g>
    <g id="Сгруппировать_12477" data-name="Сгруппировать 12477" transform="translate(0 0)">
      <g id="Сгруппировать_12475" data-name="Сгруппировать 12475" transform="translate(34.592 0.01)">
        <path id="Контур_7765" data-name="Контур 7765" d="M692.646,405.271h-2.118v-8.717h-3.791v8.717h-2.118V394.528h8.027Z" transform="translate(-684.619 -394.528)" fill="#044046"/>
        <path id="Контур_7766" data-name="Контур 7766" d="M725.356,411.947a2.128,2.128,0,0,0,1.719-.767l1.6.921a3.882,3.882,0,0,1-3.346,1.642,4.053,4.053,0,1,1-.154-8.1,3.879,3.879,0,0,1,3.883,4.052,4.553,4.553,0,0,1-.077.813h-5.786A2.014,2.014,0,0,0,725.356,411.947Zm1.719-2.977a1.863,1.863,0,0,0-1.9-1.55,1.914,1.914,0,0,0-2.01,1.55Z" transform="translate(-711.741 -402.784)" fill="#044046"/>
        <path id="Контур_7767" data-name="Контур 7767" d="M764.994,409.691a3.884,3.884,0,0,1-3.744,4.052,2.981,2.981,0,0,1-2.486-1.12V416.6h-1.98V405.854h1.98v.905a2.98,2.98,0,0,1,2.486-1.12A3.883,3.883,0,0,1,764.994,409.691Zm-1.979,0a2.126,2.126,0,1,0-2.133,2.164A2.063,2.063,0,0,0,763.015,409.691Z" transform="translate(-738.241 -402.784)" fill="#044046"/>
        <path id="Контур_7768" data-name="Контур 7768" d="M796.265,411.947a2.128,2.128,0,0,0,1.719-.767l1.6.921a3.883,3.883,0,0,1-3.346,1.642,4.053,4.053,0,1,1-.154-8.1,3.88,3.88,0,0,1,3.883,4.052,4.581,4.581,0,0,1-.077.813H794.1A2.015,2.015,0,0,0,796.265,411.947Zm1.719-2.977a1.862,1.862,0,0,0-1.9-1.55,1.914,1.914,0,0,0-2.01,1.55Z" transform="translate(-764.43 -402.784)" fill="#044046"/>
        <path id="Контур_7769" data-name="Контур 7769" d="M832.465,414.149l-2.793-3.484v3.484h-1.98v-7.673h1.98v3.376l2.64-3.376h2.363l-3.085,3.79,3.177,3.883Z" transform="translate(-790.93 -403.406)" fill="#044046"/>
        <path id="Контур_7770" data-name="Контур 7770" d="M866.668,409.691a3.884,3.884,0,0,1-3.745,4.052,2.982,2.982,0,0,1-2.486-1.12V416.6h-1.98V405.854h1.98v.905a2.981,2.981,0,0,1,2.486-1.12A3.884,3.884,0,0,1,866.668,409.691Zm-1.98,0a2.126,2.126,0,1,0-2.133,2.164A2.063,2.063,0,0,0,864.688,409.691Z" transform="translate(-813.79 -402.784)" fill="#044046"/>
        <path id="Контур_7771" data-name="Контур 7771" d="M897.939,404.224a2.128,2.128,0,0,0,1.719-.767l1.6.921a3.883,3.883,0,0,1-3.346,1.642,4.053,4.053,0,1,1-.153-8.1,3.88,3.88,0,0,1,3.883,4.052,4.576,4.576,0,0,1-.077.813h-5.786A2.014,2.014,0,0,0,897.939,404.224Zm-2.778-7.935a1.055,1.055,0,0,1,1.043-1.043,1.042,1.042,0,0,1,1.029,1.043,1.029,1.029,0,0,1-1.029,1.029A1.042,1.042,0,0,1,895.161,396.289Zm4.5,4.957a1.862,1.862,0,0,0-1.9-1.55,1.913,1.913,0,0,0-2.01,1.55Zm-1.581-4.957a1.055,1.055,0,0,1,1.043-1.043,1.042,1.042,0,0,1,1.028,1.043,1.029,1.029,0,0,1-1.028,1.029A1.042,1.042,0,0,1,898.077,396.289Z" transform="translate(-839.98 -395.062)" fill="#044046"/>
        <path id="Контур_7772" data-name="Контур 7772" d="M927.574,409.691a3.963,3.963,0,0,1,4.052-4.052,3.862,3.862,0,0,1,3.438,1.98l-1.7,1a1.9,1.9,0,0,0-1.749-1.028,2.1,2.1,0,0,0,0,4.19,1.892,1.892,0,0,0,1.765-1.013l1.719.982a4.038,4.038,0,0,1-7.52-2.057Z" transform="translate(-865.148 -402.784)" fill="#044046"/>
        <path id="Контур_7773" data-name="Контур 7773" d="M965.608,408.379h-2.395v5.771h-1.98v-5.771h-2.425v-1.9h6.8Z" transform="translate(-888.357 -403.406)" fill="#044046"/>
        <path id="Контур_7774" data-name="Контур 7774" d="M986.051,409.691a4.059,4.059,0,1,1,4.051,4.052A4.009,4.009,0,0,1,986.051,409.691Zm6.139,0a2.08,2.08,0,1,0-2.087,2.118A2.04,2.04,0,0,0,992.19,409.691Z" transform="translate(-908.599 -402.784)" fill="#044046"/>
        <path id="Контур_7775" data-name="Контур 7775" d="M1027.263,414.149l-2.794-3.484v3.484h-1.979v-7.673h1.979v3.376l2.64-3.376h2.363l-3.084,3.79,3.177,3.883Z" transform="translate(-935.676 -403.406)" fill="#044046"/>
      </g>
      <g id="Сгруппировать_12476" data-name="Сгруппировать 12476">
        <path id="Контур_7781" data-name="Контур 7781" d="M-2279.747-3622.219h-15.095a5.164,5.164,0,0,1-5.158-5.158v-15.094a5.165,5.165,0,0,1,5.158-5.158h15.095a5.165,5.165,0,0,1,5.158,5.158v15.094A5.164,5.164,0,0,1-2279.747-3622.219Zm-12.836-11.143h0l-3.85,3.853a5.483,5.483,0,0,0-1.515,4.75,4.063,4.063,0,0,0,3.106,1.447h7.178a5.464,5.464,0,0,0-1.069-6.2l-3.85-3.853Zm9.262-7.013a5.409,5.409,0,0,0-3.852,1.6l-3.851,3.853,3.851,3.854a5.41,5.41,0,0,0,3.852,1.6,5.405,5.405,0,0,0,3.85-1.6,5.456,5.456,0,0,0,0-7.708A5.405,5.405,0,0,0-2283.321-3640.375Zm-15.586.868v9.167a5.352,5.352,0,0,0,.913-.731l3.851-3.852-3.851-3.855a5.341,5.341,0,0,0-.913-.73Zm4.065-7.03a4.058,4.058,0,0,0-3.107,1.448,5.488,5.488,0,0,0,1.516,4.75l3.85,3.854,3.852-3.854a5.465,5.465,0,0,0,1.064-6.2Z" transform="translate(2300 3647.631)" fill="#044046" stroke="rgba(0,0,0,0)" stroke-width="1"/>
      </g>
    </g>
  </g>
</svg>
