<svg xmlns="http://www.w3.org/2000/svg" width="120.373" height="17.907" viewBox="0 0 120.373 17.907">
  <g id="Сгруппировать_13063" data-name="Сгруппировать 13063" transform="translate(0)">
    <g id="Сгруппировать_13060" data-name="Сгруппировать 13060" transform="translate(0 0)">
      <path id="Контур_14042" data-name="Контур 14042" d="M171.189,91.871a9.949,9.949,0,0,0-19.895.222h3.98a7.959,7.959,0,0,0,15.915.222c0-.073,0-.148,0-.222S171.191,91.944,171.189,91.871Zm-7.956,4.2a3.979,3.979,0,1,1,3.98-3.979A3.979,3.979,0,0,1,163.233,96.073Z" transform="translate(-151.294 -82.145)" fill="#ff3762"/>
    </g>
    <path id="Контур_14043" data-name="Контур 14043" d="M801.994,116.188a6.269,6.269,0,0,0-6.286,6.237,6.287,6.287,0,0,0,12.573,0A6.269,6.269,0,0,0,801.994,116.188Zm0,9.859a3.653,3.653,0,1,1,3.175-3.622A3.393,3.393,0,0,1,801.994,126.047Z" transform="translate(-726.112 -112.477)" fill="#ff3762"/>
    <g id="Сгруппировать_13061" data-name="Сгруппировать 13061" transform="translate(39.259 3.709)">
      <path id="Контур_14044" data-name="Контур 14044" d="M524.083,116.437l-.015,1.387-.26-.311a4.326,4.326,0,0,0-3.4-1.345c-3.089,0-5.6,2.8-5.6,6.237v0c0,3.439,2.513,6.237,5.6,6.237a4.326,4.326,0,0,0,3.4-1.345l.26-.311.015,1.387h3.047V116.437Zm.182,5.973c0,2.043-1.253,3.622-3.151,3.622a3.341,3.341,0,0,1-3.224-3.622v0a3.341,3.341,0,0,1,3.224-3.622c1.9,0,3.151,1.579,3.151,3.622v0Z" transform="translate(-514.803 -116.168)" fill="#ff3762"/>
    </g>
    <g id="Сгруппировать_13062" data-name="Сгруппировать 13062" transform="translate(95.694 3.709)">
      <path id="Контур_14045" data-name="Контур 14045" d="M1047.671,116.437l-.015,1.387s-.143-.17-.26-.311a4.327,4.327,0,0,0-3.4-1.345c-3.088,0-5.6,2.8-5.6,6.237v0c0,3.439,2.513,6.237,5.6,6.237a4.327,4.327,0,0,0,3.4-1.345c.117-.141.26-.311.26-.311l.015,1.387h3.047V116.437Zm.182,5.973c0,2.043-1.253,3.622-3.151,3.622a3.341,3.341,0,0,1-3.224-3.622v0a3.341,3.341,0,0,1,3.224-3.622c1.9,0,3.151,1.579,3.151,3.622v0Z" transform="translate(-1038.391 -116.168)" fill="#ff3762"/>
    </g>
    <path id="Контур_14046" data-name="Контур 14046" d="M397.772,120.84h3.091a5.882,5.882,0,0,0-5.972-4.651,6.238,6.238,0,1,0,0,12.475,5.881,5.881,0,0,0,5.972-4.651h-3.091a3.108,3.108,0,0,1-2.881,2.036,3.65,3.65,0,0,1,0-7.243A3.108,3.108,0,0,1,397.772,120.84Z" transform="translate(-362.975 -112.477)" fill="#ff3762"/>
    <path id="Контур_14047" data-name="Контур 14047" d="M655.55,118.654h-2.623v11.937h3.062v-7.333l3.664,4.682,3.64-4.684v7.335h3.062V118.654h-2.623l-4.1,5.242Z" transform="translate(-598.755 -114.674)" fill="#ff3762"/>
    <path id="Контур_14048" data-name="Контур 14048" d="M941.476,118.657h-3.607l-4.343,5.242v-5.242h-3.062v11.937h3.062v-5.157l4.851,5.157h3.906l-5.774-6.061Z" transform="translate(-846.309 -114.677)" fill="#ff3762"/>
    <path id="Контур_14049" data-name="Контур 14049" d="M1174.2,130.593h3.062v-9.367h3.6v-2.569h-10.269v2.569h3.6Z" transform="translate(-1060.49 -114.677)" fill="#ff3762"/>
  </g>
</svg>
