<svg xmlns="http://www.w3.org/2000/svg" width="109.953" height="25.325" viewBox="0 0 109.953 25.325">
  <g id="XMLID_259_" transform="translate(-2 -1.459)">
    <g id="XMLID_317_" transform="translate(2 1.459)">
      <path id="XMLID_258_" d="M25.938,4.3A2.838,2.838,0,0,0,23.1,1.459H4.837A2.838,2.838,0,0,0,2,4.3v9.133a11.97,11.97,0,0,0,23.94,0Z" transform="translate(-2 -1.459)" fill="#ffce00" fill-rule="evenodd"/>
      <path id="XMLID_318_" d="M22.73,25.526h0A1.139,1.139,0,1,0,21.6,26.652a1.133,1.133,0,0,0,1.126-1.126m-4,0a1.126,1.126,0,0,0-1.137-1.116,1.153,1.153,0,0,0-.794,1.967A1.165,1.165,0,0,0,18.732,25.526Z" transform="translate(-7.634 -10.39)" fill="#1d1d1b" fill-rule="evenodd"/>
    </g>
    <path id="XMLID_305_" d="M94.758,21.707c.016,1.095,1.471,1.849,2.521.548V18.879h4.134V22.24c1.045,1.321,2.522.566,2.522-.533V13.029h0c-1.046-1.322-2.522-.566-2.522.533v2.827H97.268V13.014c-1.046-1.3-2.511-.548-2.511.547v8.146ZM64.7,14.919v7.4a.015.015,0,0,0,0,.007c1.123,1.2,2.548.481,2.548-.615V14.919h2.445c1.338-1.036.567-2.481-.547-2.481H62.788c-1.114,0-1.886,1.445-.547,2.481Zm-8.865,3.072-2.946-5.042a1.3,1.3,0,0,0-1.664-.5,1.229,1.229,0,0,0-.459,1.715l3.52,5.944a2.856,2.856,0,0,1-1.387.425,1.2,1.2,0,1,0,.112,2.388,4.821,4.821,0,0,0,3.572-1.735A16.219,16.219,0,0,0,58.6,18.011l2.072-3.889a1.231,1.231,0,0,0-.521-1.694,1.274,1.274,0,0,0-1.653.561l-2.668,5Zm50.1-.346a5.16,5.16,0,0,0,5.318,5.3c3.894,0,6.485-3.664,4.79-7.908a4.5,4.5,0,0,0-2.24-2.2c-4.275-1.629-7.868.974-7.868,4.814Zm8.094,0a2.777,2.777,0,1,1-5.553,0,2.777,2.777,0,1,1,5.553,0Zm11.207-2.716A1.226,1.226,0,0,0,126.48,13.7a1.24,1.24,0,0,0-1.245-1.225h-1.9a5.079,5.079,0,0,0-5.308,5.186,5.079,5.079,0,0,0,5.308,5.186h1.9a1.226,1.226,0,0,0,1.245-1.225,1.239,1.239,0,0,0-1.245-1.225h-1.97a2.622,2.622,0,0,1-2.745-2.735,2.623,2.623,0,0,1,2.745-2.735h1.97ZM79,22.574a1.226,1.226,0,0,0,1.735.02,1.245,1.245,0,0,0,.051-1.735l-3.195-3.3,3.073-3.175a1.23,1.23,0,0,0-.051-1.715,1.2,1.2,0,0,0-1.715.021L75.721,15.96a.841.841,0,0,1-.674.327.548.548,0,0,1-.582-.541V13.016c-1.044-1.305-2.511-.55-2.511.545v8.692c1.045,1.3,2.511.549,2.511-.546v-2.88c.519.134.751-.164,1.256.359L79,22.574Zm3.123-4.93a5.161,5.161,0,0,0,5.318,5.3c3.894,0,6.485-3.664,4.789-7.908a4.5,4.5,0,0,0-2.239-2.2c-4.274-1.63-7.868.974-7.868,4.814Zm8.094,0a2.777,2.777,0,1,1-5.553,0,2.777,2.777,0,1,1,5.553,0Zm39.38-1a1.266,1.266,0,1,0-1.275-1.275,1.274,1.274,0,0,0,1.275,1.275Zm0,4.522a1.288,1.288,0,0,0,1.266-1.276,1.271,1.271,0,0,0-2.541,0A1.283,1.283,0,0,0,129.595,21.166Z" transform="translate(-18.907 -4.223)" fill="#2fa736" fill-rule="evenodd"/>
    <g id="XMLID_260_" transform="translate(31.974 20.513)">
      <path id="XMLID_302_" d="M53.885,38.215a1.61,1.61,0,0,1-1.173.462,1.6,1.6,0,0,1-1.641-1.635,1.552,1.552,0,0,1,.468-1.161,1.705,1.705,0,0,1,2.347,0,1.552,1.552,0,0,1,.468,1.161A1.59,1.59,0,0,1,53.885,38.215Zm-2.02-.334a1.146,1.146,0,0,0,.847.334,1.174,1.174,0,1,0,0-2.347,1.153,1.153,0,0,0-.847.34,1.217,1.217,0,0,0,0,1.674Z" transform="translate(-51.07 -33.727)" fill="#1d1d1b"/>
      <path id="XMLID_300_" d="M60.621,35.685v2.751a.23.23,0,0,1-.231.231.226.226,0,0,1-.231-.231v-1.2H58.4v1.2a.23.23,0,0,1-.231.231.226.226,0,0,1-.231-.231V35.685a.222.222,0,0,1,.231-.231.226.226,0,0,1,.231.231v1.1h1.764v-1.1a.222.222,0,0,1,.231-.231A.227.227,0,0,1,60.621,35.685Z" transform="translate(-53.741 -33.742)" fill="#1d1d1b"/>
      <path id="XMLID_298_" d="M65.988,38.461V35.973H64.782l-.1,1.385c-.057.924-.34,1.3-.955,1.3-.3.026-.308-.468-.013-.455.352,0,.481-.244.526-.943l.1-1.507a.241.241,0,0,1,.244-.231h1.629a.23.23,0,0,1,.231.231V38.46a.23.23,0,0,1-.231.231A.225.225,0,0,1,65.988,38.461Z" transform="translate(-55.907 -33.767)" fill="#1d1d1b"/>
      <path id="XMLID_295_" d="M72.885,38.421a.231.231,0,0,1-.462,0v-.128a1.483,1.483,0,0,1-1.032.385,1.5,1.5,0,0,1-1.135-.468,1.587,1.587,0,0,1-.449-1.167,1.558,1.558,0,0,1,.442-1.161,1.519,1.519,0,0,1,1.142-.468,1.485,1.485,0,0,1,1.032.378v-.135a.231.231,0,0,1,.462,0Zm-.461-.7V36.363a1.133,1.133,0,0,0-.981-.494,1.145,1.145,0,0,0-.847.334,1.1,1.1,0,0,0-.327.84,1.117,1.117,0,0,0,.327.847,1.161,1.161,0,0,0,.853.334A1.125,1.125,0,0,0,72.424,37.722Z" transform="translate(-58.361 -33.727)" fill="#1d1d1b"/>
      <path id="XMLID_292_" d="M78.812,35.153l-1.8,2.328a.216.216,0,0,1-.257.083.213.213,0,0,1-.16-.231V34.6a.222.222,0,0,1,.231-.231.226.226,0,0,1,.231.231v2.193l1.782-2.315a.237.237,0,0,1,.43.141v2.732a.231.231,0,1,1-.462,0V35.153ZM77.491,32.9c.032.3.173.442.429.449s.4-.154.429-.449a.256.256,0,1,1,.506.064.951.951,0,0,1-1.872,0A.257.257,0,1,1,77.491,32.9Z" transform="translate(-61.005 -32.652)" fill="#1d1d1b"/>
      <path id="XMLID_290_" d="M85.459,35.685v2.751a.23.23,0,0,1-.231.231A.226.226,0,0,1,85,38.436v-1.2H83.234v1.2a.23.23,0,0,1-.231.231.226.226,0,0,1-.231-.231V35.685A.222.222,0,0,1,83,35.454a.226.226,0,0,1,.231.231v1.1H85v-1.1a.222.222,0,0,1,.231-.231A.227.227,0,0,1,85.459,35.685Z" transform="translate(-63.407 -33.742)" fill="#1d1d1b"/>
      <path id="XMLID_288_" d="M90.1,37.081c.308-.032.308.481,0,.455H88.806c-.308.026-.314-.487,0-.455Z" transform="translate(-65.664 -34.375)" fill="#1d1d1b"/>
      <path id="XMLID_286_" d="M92.871,35.749a.23.23,0,0,1,.231-.231h1.59a.228.228,0,0,1,0,.455H93.333v2.488a.231.231,0,0,1-.462,0Z" transform="translate(-67.337 -33.767)" fill="#1d1d1b"/>
      <path id="XMLID_284_" d="M99.555,36.244l-1.8,2.328a.216.216,0,0,1-.257.083.213.213,0,0,1-.161-.231V35.686a.223.223,0,0,1,.231-.231.226.226,0,0,1,.231.231v2.193l1.782-2.315a.236.236,0,0,1,.429.141v2.732a.231.231,0,1,1-.462,0V36.244Z" transform="translate(-69.077 -33.743)" fill="#1d1d1b"/>
      <path id="XMLID_282_" d="M105.978,35.518a.229.229,0,0,1,.231.224v2.719a.23.23,0,0,1-.231.231.226.226,0,0,1-.231-.231V35.973h-1.77v2.488a.23.23,0,0,1-.231.231.226.226,0,0,1-.231-.231V35.742a.225.225,0,0,1,.231-.224Z" transform="translate(-71.479 -33.767)" fill="#1d1d1b"/>
      <path id="XMLID_279_" d="M112.137,35.887A1.38,1.38,0,0,1,112.49,37c-.019.167-.1.25-.237.25h-2.379a1.151,1.151,0,0,0,1.219.975,1.276,1.276,0,0,0,.878-.327c.275-.237.552.115.321.321a1.729,1.729,0,0,1-1.218.455,1.573,1.573,0,0,1-1.667-1.635,1.608,1.608,0,0,1,.455-1.167,1.52,1.52,0,0,1,1.154-.462A1.435,1.435,0,0,1,112.137,35.887Zm-.1.936a.961.961,0,0,0-1.02-.968,1.132,1.132,0,0,0-1.142.968Z" transform="translate(-73.772 -33.726)" fill="#1d1d1b"/>
      <path id="XMLID_276_" d="M118.578,35.88a1.592,1.592,0,0,1,.455,1.161,1.616,1.616,0,0,1-.455,1.167,1.5,1.5,0,0,1-1.135.468,1.455,1.455,0,0,1-1.026-.385v1.475a.23.23,0,0,1-.231.231.226.226,0,0,1-.231-.231v-4.11a.231.231,0,1,1,.462,0V35.8a1.46,1.46,0,0,1,1.032-.385A1.5,1.5,0,0,1,118.578,35.88Zm-.34,2.007a1.146,1.146,0,0,0,.334-.847,1.19,1.19,0,0,0-2.154-.68V37.72a1.218,1.218,0,0,0,1.821.167Z" transform="translate(-76.32 -33.726)" fill="#1d1d1b"/>
      <path id="XMLID_274_" d="M125.628,35.685v2.751a.23.23,0,0,1-.231.231.226.226,0,0,1-.231-.231v-2.3l-.936.789a.227.227,0,0,1-.352,0l-.93-.789v2.3a.231.231,0,0,1-.237.231.225.225,0,0,1-.225-.231V35.685a.222.222,0,0,1,.231-.231.258.258,0,0,1,.16.064l1.18.955,1.173-.955a.262.262,0,0,1,.167-.064A.222.222,0,0,1,125.628,35.685Z" transform="translate(-78.861 -33.742)" fill="#1d1d1b"/>
      <path id="XMLID_271_" d="M132.177,38.421a.231.231,0,0,1-.462,0v-.128a1.483,1.483,0,0,1-1.032.385,1.5,1.5,0,0,1-1.135-.468,1.587,1.587,0,0,1-.449-1.167,1.556,1.556,0,0,1,.442-1.161,1.519,1.519,0,0,1,1.142-.468,1.485,1.485,0,0,1,1.032.378v-.135a.231.231,0,0,1,.462,0Zm-.462-.7V36.363a1.133,1.133,0,0,0-.981-.494,1.145,1.145,0,0,0-.847.334,1.1,1.1,0,0,0-.327.84,1.119,1.119,0,0,0,.327.847,1.162,1.162,0,0,0,.853.334A1.125,1.125,0,0,0,131.715,37.722Z" transform="translate(-81.435 -33.727)" fill="#1d1d1b"/>
      <path id="XMLID_268_" d="M138.513,35.88a1.592,1.592,0,0,1,.455,1.161,1.616,1.616,0,0,1-.455,1.167,1.5,1.5,0,0,1-1.135.468,1.455,1.455,0,0,1-1.026-.385v1.475a.23.23,0,0,1-.231.231.226.226,0,0,1-.231-.231v-4.11a.231.231,0,1,1,.462,0V35.8a1.46,1.46,0,0,1,1.032-.385A1.5,1.5,0,0,1,138.513,35.88Zm-.34,2.007a1.146,1.146,0,0,0,.334-.847,1.19,1.19,0,0,0-2.154-.68V37.72a1.218,1.218,0,0,0,1.821.167Z" transform="translate(-84.078 -33.726)" fill="#1d1d1b"/>
      <path id="XMLID_266_" d="M144.722,38.263a.22.22,0,0,1,.019.334.229.229,0,0,1-.334,0l-1.526-1.423v1.263a.231.231,0,1,1-.462,0V35.679a.221.221,0,0,1,.231-.224.226.226,0,0,1,.231.231V36.93l1.481-1.392a.254.254,0,0,1,.334,0,.228.228,0,0,1-.026.34l-1.333,1.167Z" transform="translate(-86.619 -33.743)" fill="#1d1d1b"/>
      <path id="XMLID_263_" d="M150.024,35.887A1.38,1.38,0,0,1,150.376,37c-.019.167-.1.25-.237.25H147.76a1.151,1.151,0,0,0,1.219.975,1.276,1.276,0,0,0,.878-.327c.275-.237.552.115.321.321a1.729,1.729,0,0,1-1.218.455,1.573,1.573,0,0,1-1.667-1.635,1.608,1.608,0,0,1,.455-1.167,1.52,1.52,0,0,1,1.154-.462A1.434,1.434,0,0,1,150.024,35.887Zm-.1.936a.96.96,0,0,0-1.02-.968,1.132,1.132,0,0,0-1.142.968Z" transform="translate(-88.515 -33.726)" fill="#1d1d1b"/>
      <path id="XMLID_261_" d="M154.12,38.461V35.973h-.834a.228.228,0,1,1,0-.455h2.129a.228.228,0,1,1,0,.455h-.834v2.488a.217.217,0,0,1-.231.224A.224.224,0,0,1,154.12,38.461Z" transform="translate(-90.757 -33.767)" fill="#1d1d1b"/>
    </g>
  </g>
</svg>
