<svg xmlns="http://www.w3.org/2000/svg" xmlns:xlink="http://www.w3.org/1999/xlink" width="121.043" height="14.142" viewBox="0 0 121.043 14.142">
  <defs>
    <clipPath id="clip-path">
      <rect id="Прямоугольник_785" data-name="Прямоугольник 785" width="121.043" height="14.142" fill="none"/>
    </clipPath>
  </defs>
  <g id="Сгруппировать_25653" data-name="Сгруппировать 25653" clip-path="url(#clip-path)">
    <path id="Контур_14085" data-name="Контур 14085" d="M113.228.671A5.441,5.441,0,0,1,117.5.246a5.07,5.07,0,0,1,3.135,2.774c-.647.359-1.287.728-1.931,1.091a3.06,3.06,0,0,0-4.425-1.471,1.524,1.524,0,0,0-.2,2.272,4.942,4.942,0,0,0,1.77.894A27.781,27.781,0,0,1,119,6.951a3.509,3.509,0,0,1,2.043,2.966v.016a4.838,4.838,0,0,1-.3,1.746,4.139,4.139,0,0,1-3.059,2.311,7.209,7.209,0,0,1-4.435-.461,4.7,4.7,0,0,1-2.46-2.761c.666-.371,1.31-.782,1.989-1.129a3.2,3.2,0,0,0,1.983,2.071,4.743,4.743,0,0,0,2.49.1,1.908,1.908,0,0,0,1.336-.961,1.563,1.563,0,0,0-.251-1.719,3.7,3.7,0,0,0-1.162-.663,25.988,25.988,0,0,1-4.16-1.58,3.044,3.044,0,0,1-1.569-2.119,4.116,4.116,0,0,1,.341-2.638A3.894,3.894,0,0,1,113.228.671M0,.25c.817-.005,1.633,0,2.45,0Q3.859,5.456,5.277,10.661C6.29,7.19,7.293,3.716,8.31.247c.759,0,1.519,0,2.278,0q1.511,5.237,3.038,10.47c.953-3.488,1.891-6.981,2.844-10.47h2.447q-1.854,6.814-3.7,13.628H12.387Q10.918,8.814,9.45,3.753C8.46,7.124,7.49,10.5,6.505,13.876H3.7Q1.847,7.064,0,.25m20.556,0q1.161,0,2.323,0,0,6.813,0,13.628-1.163,0-2.325,0,0-6.813,0-13.627m4.98,0h2.282q0,5.735,0,11.47h5.623v2.157q-3.953,0-7.906,0,0-6.813,0-13.627m9.544,0c1.655,0,3.31,0,4.965,0a7.584,7.584,0,0,1,3.362.641A6.745,6.745,0,0,1,46.59,4.263a7.569,7.569,0,0,1,.34,4.565,6.778,6.778,0,0,1-2.64,3.907,6.4,6.4,0,0,1-3.672,1.141q-2.77,0-5.54,0,0-6.813,0-13.627m2.3,2.2q0,4.647,0,9.294c1.106,0,2.211.007,3.316-.006a4.079,4.079,0,0,0,2.874-1.211,4.575,4.575,0,0,0,1.312-2.859,4.881,4.881,0,0,0-1.121-3.805A4.1,4.1,0,0,0,40.7,2.446q-1.659,0-3.317,0M49.231.248c1.858,0,3.717-.007,5.576,0a4.171,4.171,0,0,1,2.848,1.156,3.637,3.637,0,0,1,.574,4.512,3.462,3.462,0,0,1-.849.879,3.663,3.663,0,0,1,1.574,1.607,3.859,3.859,0,0,1-.121,3.442,4.173,4.173,0,0,1-3.52,2.027H49.231q0-6.814,0-13.628m2.276,2.144c.013,1.178,0,2.357,0,3.535,1.074.008,2.149,0,3.223,0a1.736,1.736,0,0,0,1.583-1.026A1.839,1.839,0,0,0,56.064,3a1.726,1.726,0,0,0-1.338-.62c-1.073.008-2.146-.01-3.22.01m0,5.593q0,1.9,0,3.8c1.13,0,2.258,0,3.388,0a2.245,2.245,0,0,0,1.337-.374,1.924,1.924,0,0,0,.5-2.531,1.844,1.844,0,0,0-1.6-.893c-1.21,0-2.42,0-3.63,0M61.432.248h8.277q0,1.078,0,2.157H63.692q0,1.754,0,3.506h5.519V8.068H63.692v3.651q3.061,0,6.122,0,0,1.078,0,2.156-4.192,0-8.383,0,0-6.814,0-13.628m10.394,0h4.235A10.548,10.548,0,0,1,78.54.4a4.48,4.48,0,0,1,2.5,1.781A4.264,4.264,0,0,1,79.08,8.589q1.559,2.646,3.131,5.286c-.843,0-1.686,0-2.528,0-.975-1.65-1.955-3.3-2.922-4.954-.884-.011-1.769,0-2.653,0,0,1.649-.006,3.3.006,4.949-.763.016-1.525,0-2.287.007q0-6.814,0-13.628m2.282,2.137q0,2.261,0,4.522c1.125,0,2.249.006,3.374,0a2.209,2.209,0,0,0,2-2.24,2.23,2.23,0,0,0-2.013-2.276c-1.121-.006-2.243,0-3.365,0M83.923.248q2.294,0,4.589,0a8.925,8.925,0,0,1,2,.114,4.482,4.482,0,0,1,2.664,1.871,4.274,4.274,0,0,1-2.011,6.358c1.05,1.758,2.085,3.526,3.135,5.285-.851,0-1.7,0-2.55,0Q90.3,11.4,88.841,8.917H86.185c0,1.653,0,3.306,0,4.958H83.923q0-6.814,0-13.628m2.262,2.114c0,1.514,0,3.029,0,4.544,1.109,0,2.218,0,3.327,0A2.153,2.153,0,0,0,91.319,5.73a2.353,2.353,0,0,0-.443-2.756,2.187,2.187,0,0,0-1.617-.611c-1.025,0-2.049,0-3.073,0m9.73,11.513C95.924,9.33,95.9,4.785,95.927.24c.756.017,1.514,0,2.271.008q0,6.813,0,13.627-1.143,0-2.284,0M100.855.248q4.149,0,8.3,0V2.4q-3.009,0-6.017,0,0,1.752,0,3.5c1.84,0,3.68,0,5.521,0q0,1.078,0,2.155c-1.84,0-3.68,0-5.52,0v3.649c2.034,0,4.067,0,6.1,0q0,1.078,0,2.156-4.192,0-8.383,0,0-6.814,0-13.628" transform="translate(0 0)" fill="#be11a5" fill-rule="evenodd"/>
  </g>
</svg>
