<svg id="Layer_1" data-name="Layer 1" xmlns="http://www.w3.org/2000/svg" width="109.565" height="23.474" viewBox="0 0 109.565 23.474">
  <g id="Symbols" transform="translate(0 0)">
    <g id="Artboard">
      <g id="Ru">
        <rect id="Rectangle" width="109.545" height="23.474" fill="none"/>
        <path id="Fill-16" d="M7.5,6.507H6.51c-1.5,0-2.961.994-2.961,3.885,0,2.789,1.335,3.7,2.961,3.7H7.5ZM5.951,15.636,2.99,22.285H.83l3.253-7.113c-1.54-.768-2.55-2.181-2.55-4.78,0-3.643,2.308-5.462,5.051-5.462H9.372V22.285H7.5V15.636Z" transform="translate(-0.489 -2.84)" fill="#e41f13"/>
        <path id="Fill-18" d="M61.449,23.274c0-3.836,1.478-6.288,4.345-6.288a3.823,3.823,0,0,1,2.255.632l-.267,1.795a3.22,3.22,0,0,0-2.012-.85c-1.359,0-2.329,1.528-2.329,4.612s.727,4.8,2.255,4.8a3.092,3.092,0,0,0,2.053-.752l.435,1.409a3.7,3.7,0,0,1-2.55.92c-2.62,0-4.2-2.111-4.2-6.283Zm-5.536.025v6.09H54.024V17.154h1.889V22.81l2.936-5.655h1.922L57.733,22.9l3.474,6.481H59.154Zm-8.908-1.142h3.129c0-2.09-.341-3.618-1.429-3.618C47.54,18.538,47.125,19.972,47.006,22.157Zm2.09,7.4c-2.526,0-4.078-2.012-4.078-5.774,0-3.934,1.092-6.8,3.7-6.8,2.053,0,3.372,1.528,3.372,5.68v1.043h-5.1c0,2.768.776,4.226,2.279,4.226a4.288,4.288,0,0,0,2.407-.821l.435,1.454A4.8,4.8,0,0,1,49.1,29.557ZM41.034,18.682H38.919V18.9c0,2.571-.119,6.337-1.138,8.932h3.253ZM43.872,31.8h-1.7V29.389H36.932V31.8h-1.7V27.836h.752c1.117-2.6,1.232-6.382,1.232-9.639V17.154H42.9V27.832h.969ZM34.139,17.154V29.389H32.258V23.9h-2.8v5.487H27.56V17.154h1.893v5.2h2.8v-5.2Z" transform="translate(-16.242 -9.943)" fill="#0d0802"/>
        <g id="Group-22" transform="translate(57.807 2.09)">
          <g id="Сгруппировать_13068" data-name="Сгруппировать 13068">
            <path id="Fill-20" d="M142.411,10.027c-.242-.9-.439-1.676-.583-2.464h-.074c.049.821.074,1.7.074,2.575V22.285H140.76V4.93h1.409L145.1,16.018a15.971,15.971,0,0,1,.361,2.016h.074a20.4,20.4,0,0,1,.411-2.016L148.912,4.93h1.359V22.285h-1.158V10.125c0-.821.045-1.7.094-2.575h-.094c-.222.969-.39,1.676-.587,2.4l-2.6,9.663h-.965Z" transform="translate(-140.76 -4.93)" fill="#0d0802"/>
          </g>
        </g>
        <path id="Fill-23" d="M174.5,26.208V22.832h-1.31c-2.016,0-2.99.924-2.99,3.06,0,1.721.756,2.719,1.922,2.719s1.938-1.092,2.378-2.4m.049,1.433a2.961,2.961,0,0,1-2.669,1.889c-1.643,0-2.793-1.31-2.793-3.544,0-2.62,1.429-3.979,4.078-3.979H174.5V20.475c0-1.869-.706-2.669-2.053-2.669a3.08,3.08,0,0,0-2.575,1.339l-.316-1.1a3.643,3.643,0,0,1,2.875-1.232c2.016,0,3.158,1.117,3.158,3.544v6.674a8.846,8.846,0,0,0,.267,2.255h-1.014a7.047,7.047,0,0,1-.292-1.643" transform="translate(-99.648 -9.843)" fill="#0d0802"/>
        <path id="Fill-25" d="M197.361,22.91c0-3.207-.875-5.1-2.283-5.1-1.092,0-2.016,1.166-2.55,2.464v6.858a2.3,2.3,0,0,0,2.259,1.478c1.552,0,2.575-1.844,2.575-5.7m-4.834,5.532v4.637H191.39V17.062h.994l.094,2.016a3.282,3.282,0,0,1,2.8-2.259c2.053,0,3.224,2.464,3.224,6,0,4.493-1.5,6.7-3.786,6.7a2.776,2.776,0,0,1-2.185-1.068" transform="translate(-112.79 -9.847)" fill="#0d0802"/>
        <path id="Fill-27" d="M215.178,29.634H214.04V17.4h1.138v5.754l4.1-5.754H220.4l-4.033,5.68,4.32,6.554h-1.261L215.178,23.3Z" transform="translate(-126.138 -10.189)" fill="#0d0802"/>
        <path id="Fill-29" d="M232.592,22.465h4.444c.193-3.253-.776-4.71-2.012-4.71s-2.333,1.643-2.431,4.71m2.669,6.07a3.121,3.121,0,0,0,2.464-1.31l.366.924a3.54,3.54,0,0,1-2.875,1.38c-2.6,0-3.787-2.353-3.787-6.357s1.5-6.361,3.569-6.361,3.47,2.209,3.08,6.571h-5.511c.049,3.351.924,5.17,2.694,5.17" transform="translate(-136.386 -9.841)" fill="#0d0802"/>
        <g id="Group-33" transform="translate(102.764 7.211)">
          <g id="Сгруппировать_13069" data-name="Сгруппировать 13069">
            <path id="Fill-31" d="M254.209,18.345v11.29h-1.138V18.345H250.23V17.4h6.8v.945Z" transform="translate(-250.23 -17.4)" fill="#0d0802"/>
          </g>
        </g>
      </g>
    </g>
  </g>
</svg>
