<svg xmlns="http://www.w3.org/2000/svg" width="80.848" height="80.847"><g transform="translate(-628.576 -12.576)"><circle data-name="Эллипс 5" cx="40.424" cy="40.424" r="40.424" transform="translate(628.576 12.576)" fill="#192a67"/><g data-name="Сгруппировать 104"><path data-name="Контур 380" d="M674.399 65.338a1.2 1.2 0 01.782-1.143.945.945 0 01-.385-.765c0-.583.516-1.043 1.334-1.043s1.329.46 1.329 1.043a.923.923 0 01-.385.758 1.224 1.224 0 01.784 1.15c0 .751-.609 1.385-1.728 1.385s-1.731-.634-1.731-1.385zm1.073-.087a.589.589 0 00.658.6.593.593 0 00.653-.6.589.589 0 00-.653-.59.6.6 0 00-.658.59zm.261-1.7a.371.371 0 00.4.367.371.371 0 00.393-.367.367.367 0 00-.393-.361.367.367 0 00-.4.365zm11.271.994a2.186 2.186 0 012.266-2.161 2.186 2.186 0 012.268 2.161 2.192 2.192 0 01-2.268 2.168 2.192 2.192 0 01-2.266-2.164zm1.155 0a1.089 1.089 0 001.111 1.186 1.09 1.09 0 001.113-1.186 1.086 1.086 0 00-1.113-1.18 1.084 1.084 0 00-1.111 1.184zm-18.028 2.112v-3.275h-.6v-.95h1.731v4.224zm11.2 0l.95-1.254a1.5 1.5 0 01-1.653-1.466 1.631 1.631 0 011.76-1.565 1.614 1.614 0 011.733 1.54 1.916 1.916 0 01-.441 1.168l-1.181 1.578zm.422-2.721a.623.623 0 00.64.653.623.623 0 00.639-.653.628.628 0 00-.639-.646.626.626 0 00-.637.65zm-21.917 2.721v-4.223h1.13v3.273h1.794v.95zm-4.1 0l-.161-.36h-1.59l-.155.36h-1.105l2.057-4.3c.018-.043.056-.043.074 0l2.05 4.3zm-1.392-1.2h.858l-.436-.982zm-7.882 1.2v-4.223h1.633a2.018 2.018 0 012.137 2.112 2.017 2.017 0 01-2.137 2.111zm1.13-.955h.379a1.054 1.054 0 001.105-1.155 1.054 1.054 0 00-1.105-1.155h-.379zm41.923-15.906a7.2 7.2 0 017.2-7.2 7.188 7.188 0 015.974 3.187l.114.167-3.294 2.223-.118-.176a3.226 3.226 0 00-2.676-1.428 3.229 3.229 0 00-3.225 3.225 3.228 3.228 0 003.225 3.222 3.228 3.228 0 002.186-.854h-3v-3.54h7.9s.05.246.06.329c0 .022.051.554.051.843a7.2 7.2 0 01-7.195 7.195 7.2 7.2 0 01-7.202-7.193zm-15.68 0a7.2 7.2 0 017.195-7.2 7.189 7.189 0 015.976 3.187l.113.167-3.292 2.223-.12-.176a3.223 3.223 0 00-2.676-1.428 3.227 3.227 0 00-3.223 3.225 3.226 3.226 0 003.223 3.222 3.233 3.233 0 002.188-.854h-3.007v-3.54h7.9s.05.246.06.329c0 .022.052.554.052.843a7.206 7.206 0 01-7.2 7.195 7.2 7.2 0 01-7.189-7.193zm-25.529 1.187v-8.067h4.269v8.066a1.741 1.741 0 001.739 1.739 1.741 1.741 0 001.738-1.739v-8.066h4.27v8.066a6.015 6.015 0 01-6.008 6.008 6.014 6.014 0 01-6.008-6.008zm13.736 5.688V42.917h10.785v3.834h-6.951v1.393h6.052v3.3h-6.052v1.393h6.951v3.834zm-27.948 0l5.753-9.918h-4.911v-3.834h11.921l-5.626 9.5h5.355v4.255z" fill="#fff"/></g></g></svg>