<svg xmlns="http://www.w3.org/2000/svg" width="38.998" height="39" viewBox="0 0 38.998 39">
  <path id="icon_sugar" d="M-3349-9189.5a19.5,19.5,0,0,1,19.5-19.5,19.5,19.5,0,0,1,19.5,19.5,19.5,19.5,0,0,1-19.5,19.5A19.5,19.5,0,0,1-3349-9189.5Zm19.5,17.5a17.387,17.387,0,0,0,12.374-5.124A17.388,17.388,0,0,0-3312-9189.5q0-.505-.028-1h-7.753a3.69,3.69,0,0,0-3,1.851,1.047,1.047,0,0,1-.141.206s-.009.007-.012.014c-1.044,1.542-3.494,5.156-7.305,5.271-.1,0-.2,0-.3,0a9.067,9.067,0,0,1-4.29-1.054,9.525,9.525,0,0,1-1.988-1.419,9.874,9.874,0,0,1-2.043-2.626l-.014-.029c0-.01-.007-.019-.009-.028-.012-.025-.021-.048-.03-.073a.234.234,0,0,0-.007-.023c0-.021-.009-.044-.016-.064a.069.069,0,0,0,0-.021c0-.027-.009-.056-.011-.083,0,0,0-.012,0-.016,0-.023,0-.047,0-.069v-.023c0-.028,0-.056,0-.083,0,0,0-.012,0-.019s0-.042.009-.065a.122.122,0,0,1,0-.029c0-.023.009-.044.016-.067s0-.019.007-.03l.021-.06c0-.01.009-.021.014-.03a.385.385,0,0,1,.028-.064c0-.007.007-.014.009-.019.014-.023.025-.047.039-.067a.165.165,0,0,0,.014-.023s.007-.011.011-.016l.042-.056a18.636,18.636,0,0,1,3.543-3.15,22.187,22.187,0,0,1,5.318-2.983,3.66,3.66,0,0,1,4.135,1.385l.786,1.1a1,1,0,0,1-.236,1.392,1,1,0,0,1-1.391-.236l-.786-1.106,0,0a1.671,1.671,0,0,0-1.89-.634,20.567,20.567,0,0,0-4.756,2.7c-.68.5-1.267.957-1.768,1.39l.092.012c4.059.45,6.774.753,11.413-.527a5.657,5.657,0,0,1,4.352-2.515l7.685.026a17.353,17.353,0,0,0-4.427-8.941l-7.313,7.313h0a11.247,11.247,0,0,0-.892-1.221c-.111-.127-.224-.247-.349-.365l7.114-7.114a17.37,17.37,0,0,0-11.381-4.2,17.383,17.383,0,0,0-12.374,5.124A17.388,17.388,0,0,0-3347-9189.5a17.373,17.373,0,0,0,4.206,11.381l5.649-5.651c.132.12.264.235.4.345a7.21,7.21,0,0,0,1.28.807l-5.942,5.941A17.37,17.37,0,0,0-3329.5-9172Zm-5.912-15.048a7.032,7.032,0,0,0,5.11,1.893,5.947,5.947,0,0,0,4.146-2.334,29.4,29.4,0,0,1-9.677.03C-3335.7-9187.324-3335.562-9187.186-3335.412-9187.049Z" transform="translate(3348.999 9209)" fill="#02205d"/>
</svg>
