<svg xmlns="http://www.w3.org/2000/svg" width="38.998" height="39" viewBox="0 0 38.998 39">
  <path id="icon_berry" d="M-3349-9189.5a19.5,19.5,0,0,1,19.5-19.5,19.5,19.5,0,0,1,19.5,19.5,19.5,19.5,0,0,1-19.5,19.5A19.5,19.5,0,0,1-3349-9189.5Zm7.125-12.376A17.388,17.388,0,0,0-3347-9189.5a17.388,17.388,0,0,0,5.126,12.374A17.383,17.383,0,0,0-3329.5-9172a17.387,17.387,0,0,0,12.374-5.124A17.388,17.388,0,0,0-3312-9189.5a17.388,17.388,0,0,0-5.126-12.376A17.387,17.387,0,0,0-3329.5-9207,17.383,17.383,0,0,0-3341.874-9201.875Zm8.073,18.574a4.261,4.261,0,0,1,.388-1.768,4.285,4.285,0,0,1-3.827-4.253,4.3,4.3,0,0,1,4.3-4.3,4.26,4.26,0,0,1,2.732,1,8.6,8.6,0,0,1,8.45-7.023,8.568,8.568,0,0,1-2.773,6.312,4.3,4.3,0,0,1,2.773,4.01,4.287,4.287,0,0,1-3.83,4.253,4.266,4.266,0,0,1,.391,1.768,4.3,4.3,0,0,1-4.3,4.3A4.3,4.3,0,0,1-3333.8-9183.3Zm1.719,0a2.583,2.583,0,0,0,2.582,2.582,2.582,2.582,0,0,0,2.579-2.582,2.582,2.582,0,0,0-2.579-2.581A2.583,2.583,0,0,0-3332.082-9183.3Zm3.441-6.021a2.58,2.58,0,0,0,2.582,2.58,2.581,2.581,0,0,0,2.579-2.58,2.58,2.58,0,0,0-2.579-2.581A2.58,2.58,0,0,0-3328.64-9189.321Zm-6.88,0a2.58,2.58,0,0,0,2.582,2.58,2.581,2.581,0,0,0,2.579-2.58,2.58,2.58,0,0,0-2.579-2.581A2.58,2.58,0,0,0-3335.521-9189.321Zm7.183-3.744a6.92,6.92,0,0,0,4.555-4.553A6.912,6.912,0,0,0-3328.337-9193.065Zm-7.183-6.577a5.162,5.162,0,0,1,5.161,5.161A5.161,5.161,0,0,1-3335.521-9199.643Z" transform="translate(3348.999 9209)" fill="#02205d"/>
</svg>
