<svg xmlns="http://www.w3.org/2000/svg" width="38.998" height="39" viewBox="0 0 38.998 39">
  <g id="Group_25681" data-name="Group 25681" transform="translate(-828.001 -351)">
    <path id="icon_berry" d="M-3349-9189.5a19.5,19.5,0,0,1,19.5-19.5,19.5,19.5,0,0,1,19.5,19.5,19.5,19.5,0,0,1-19.5,19.5A19.5,19.5,0,0,1-3349-9189.5Zm7.125-12.376A17.388,17.388,0,0,0-3347-9189.5a17.388,17.388,0,0,0,5.126,12.374A17.383,17.383,0,0,0-3329.5-9172a17.387,17.387,0,0,0,12.374-5.124A17.388,17.388,0,0,0-3312-9189.5a17.388,17.388,0,0,0-5.126-12.376A17.387,17.387,0,0,0-3329.5-9207,17.383,17.383,0,0,0-3341.874-9201.875Z" transform="translate(4177 9560)" fill="#02205d"/>
    <g id="leaves-of-a-plant" transform="matrix(0.999, 0.035, -0.035, 0.999, 839.382, 362.818)">
      <path id="Path_14106" data-name="Path 14106" d="M10.271,8.432A6.071,6.071,0,0,0,9.163,9.9,10.029,10.029,0,0,0,7.932,7.046C9.968.244.046,0,.046,0s.29,8.5,5.472,8.306A8.332,8.332,0,0,0,5.3,6.622c-.081-.352-.177-.687-.276-1a12.979,12.979,0,0,0-.705-1.756c.378.508.712.992,1.008,1.447a20.358,20.358,0,0,1,1.83,3.423,17.452,17.452,0,0,1,1.209,7.3.753.753,0,1,0,1.506,0,29.346,29.346,0,0,0-.161-3.2,7.454,7.454,0,0,1,.978-2.554A16.215,16.215,0,0,1,12,8.185a9.081,9.081,0,0,1,1.977-2.008,6.858,6.858,0,0,0-1.66,3.415c4.306.225,4.473-6.55,4.473-6.55S8.906,3.311,10.271,8.432Z" transform="translate(0 0)" fill="#02205d"/>
    </g>
  </g>
</svg>
