<svg xmlns="http://www.w3.org/2000/svg" xmlns:xlink="http://www.w3.org/1999/xlink" width="76.574" height="51.917" viewBox="0 0 76.574 51.917">
  <defs>
    <clipPath id="clip-path">
      <rect id="Прямоугольник_1358" data-name="Прямоугольник 1358" width="76.574" height="51.917" fill="none"/>
    </clipPath>
  </defs>
  <g id="Сгруппировать_25686" data-name="Сгруппировать 25686" clip-path="url(#clip-path)">
    <path id="Контур_14111" data-name="Контур 14111" d="M108.821,20.6a35.288,35.288,0,0,0-4.461,1.462,21.012,21.012,0,0,0,2.618,1.04c.7-1.014,1.345-1.86,1.843-2.5m22.865,1.564a33.307,33.307,0,0,0-4.833-1.6c.507.634,1.2,1.547,1.969,2.669a21.308,21.308,0,0,0,2.864-1.073m-3.64,1.309a35.161,35.161,0,0,1-6.263,1.066,5.58,5.58,0,0,0-3.422-1.218V19.488a37.277,37.277,0,0,1,7.242.793c.381.448,1.309,1.564,2.443,3.194m-20.28-.134v.009c.971-1.4,1.808-2.459,2.288-3.035a36.452,36.452,0,0,1,7.539-.827v3.818h-.1a3.9,3.9,0,0,0-3.212,1.219,34.581,34.581,0,0,1-6.513-1.184m5.594,4.9c.085-.567.2-1.352.279-1.979a3.621,3.621,0,0,1,.21-.928,35.681,35.681,0,0,1-6.583-1.26,47.966,47.966,0,0,0-2.567,4.309c2.55-.035,6.886-.11,8.661-.136Zm16.849,28.8c-1.259.05-2.468.085-3.608.1-2.468.042-5.3.093-8.239.111V58.62a38.826,38.826,0,0,1,10.04,1.327c.581-.864,1.2-1.835,1.808-2.908m-7.673-31.721a5.876,5.876,0,0,1,1.115,2.873c.651.016,1.622.043,2.68.075,1.361.043,2.983.084,4.7.137a44.983,44.983,0,0,0-2.495-4.2,33.67,33.67,0,0,1-6.007,1.117Zm9.371,3.108a44.514,44.514,0,0,0-2.585-4.452,22.116,22.116,0,0,0,3.371-1.369,27.823,27.823,0,0,1,8.771,6.178c-2.366-.128-6.067-.247-9.557-.357m-5.07,34.992a33.459,33.459,0,0,0,4.614-1.5,20.094,20.094,0,0,0-2.739-1.04c-.726,1.049-1.375,1.909-1.874,2.544M103.617,28.4v.008a5.643,5.643,0,0,0-1.47-3.271,4.474,4.474,0,0,0-1.8-1.1,28.823,28.823,0,0,1,3.017-1.548,20.43,20.43,0,0,0,3.135,1.344,46.738,46.738,0,0,0-2.672,4.565Zm25.561,31.779c.624-.946,1.284-2.012,1.936-3.177,2.975-.117,6.117-.294,9.008-.472a29.016,29.016,0,0,1-7.717,4.975,18.762,18.762,0,0,0-3.227-1.326M106.827,57.1c-.456-.015-.9-.041-1.352-.05.625,1.09,1.25,2.079,1.843,2.957a38.737,38.737,0,0,1,10.275-1.385V57.26h-1.268c-3.483,0-6.592-.052-9.5-.162m11.534,2.325v.009a38.2,38.2,0,0,1,9.565,1.216c-1.023,1.471-1.876,2.518-2.323,3.05a37.181,37.181,0,0,1-7.242.794Zm-13.79-2.41c.659,1.192,1.334,2.274,1.976,3.221a18.692,18.692,0,0,0-3.1,1.283A29.008,29.008,0,0,1,95.8,56.635c1.244.058,4.555.21,8.772.378m-.161,4.919a33.506,33.506,0,0,0,4.4,1.445c-.483-.617-1.108-1.445-1.8-2.452a19.83,19.83,0,0,0-2.6,1.006m5.644,1.739c-.43-.524-1.268-1.545-2.265-2.974a38.37,38.37,0,0,1,9.8-1.266v5.06a36.829,36.829,0,0,1-7.539-.82" transform="translate(-78.807 -16.031)" fill="#009d3a" fill-rule="evenodd"/>
    <path id="Контур_14112" data-name="Контур 14112" d="M91.723,1.209c11.147,0,20.931,4.681,26.433,11.711.523.024,1.04.05,1.529.076C114.09,5.231,103.655,0,91.723,0,79.869,0,69.492,5.164,63.88,12.828c.55-.026,1.064-.043,1.529-.061C70.928,5.83,80.654,1.209,91.723,1.209m0,49.5c-10.384,0-19.578-4.063-25.241-10.291-.564-.043-1.123-.078-1.664-.111,5.8,7,15.684,11.611,26.9,11.611,11.28,0,21.219-4.673,27-11.738-.523.035-1.082.076-1.657.119-5.644,6.3-14.9,10.41-25.341,10.41" transform="translate(-52.549)" fill="#009d3a" fill-rule="evenodd"/>
    <path id="Контур_14113" data-name="Контур 14113" d="M21.615,58.294a2.027,2.027,0,0,0-1.8-.844c-.693.033-1.385.067-2.079.109a.326.326,0,0,0-.288.264C15.919,66.373,14.8,74.079,14.018,81.38a3.061,3.061,0,0,0,.584,2.215,2.483,2.483,0,0,0,1.817.988c.7.05,1.394.093,2.088.126h.017a.3.3,0,0,0,.3-.288c.735-7.3,1.79-15.116,3.227-23.888a2.944,2.944,0,0,0-.438-2.239M76.009,64.21a3.212,3.212,0,0,0-1.936-1.142c-1.268-.177-4.766-.4-7.115-.43a2.928,2.928,0,0,0-2.807,2.678c-.041.4-.945,6.118-1.165,8.147a2.306,2.306,0,0,0,2.434,2.669s3.186-.009,4.419-.032c-.143.828-.355,2.052-.474,2.686-.76.05-1.521.085-2.271.12a3.406,3.406,0,0,0,.041-.39,1.572,1.572,0,0,0-1.521-1.648l-3.051.1a.326.326,0,0,0-.3.278c-.227,1.4-.465,2.78-.709,4.184a2.754,2.754,0,0,0,.43,2.163,2.044,2.044,0,0,0,1.692.826c.041,0,4.021-.2,7.377-.582a4.038,4.038,0,0,0,3.058-2.957,46.936,46.936,0,0,0,1.285-7.216,2.464,2.464,0,0,0-.508-2.062,2.316,2.316,0,0,0-1.818-.846H68.523c.058-.346.4-2.407.464-2.805.591.017,2.23.058,2.23.058a1.091,1.091,0,0,0-.034.389,1.689,1.689,0,0,0,1.605,1.648c.965.009,1.927.026,2.9.042a.316.316,0,0,0,.322-.286c.186-1.183.364-2.41.541-3.651a2.546,2.546,0,0,0-.541-1.951ZM63,62.57a.377.377,0,0,1,.075.262c-.692,6.007-1.6,12.227-2.788,19.021a3.455,3.455,0,0,1-2.923,2.907c-2.376.125-4.783.227-7.176.3l-.075.009a2.119,2.119,0,0,1-1.75-.922,2.986,2.986,0,0,1-.463-2.221c1.14-7.537,2-13.756,2.7-19.58a.312.312,0,0,1,.321-.278c.692.008,1.4.034,2.1.052a2.317,2.317,0,0,1,1.826.971,3.047,3.047,0,0,1,.541,2.248c-.558,4.462-1.209,9.066-1.994,14.061l2.222-.068c.8-5.053,1.471-9.708,2.028-14.229a2.961,2.961,0,0,1,2.754-2.747l2.375.1a.31.31,0,0,1,.228.11M10.968,70.057v.009A1.667,1.667,0,0,1,9.38,68.374s.009-.192.042-.4c-.362.009-2.146.026-2.626.035-.279,1.562-1.343,8.956-1.538,10.831.32.008,2.128.119,2.661.153.136-.761.473-2.645.523-2.966l-.227-.009a1.456,1.456,0,0,1-1.082-.567,1.819,1.819,0,0,1-.4-1.4c.128-.93.432-2.9.432-2.9a.347.347,0,0,1,.32-.288h4.725a1.7,1.7,0,0,1,1.352.506,1.805,1.805,0,0,1,.286,1.4c-.067.5-.8,6.752-1.183,9.048-.3,1.741-1.166,2.561-2.7,2.588H9.836A56.488,56.488,0,0,1,2.6,83.755a3.132,3.132,0,0,1-1.951-.914A3.764,3.764,0,0,1,0,80.594,140.475,140.475,0,0,1,1.936,65.807a4.105,4.105,0,0,1,3.353-2.925c2.425-.244,5.528-.372,7.354-.372a2.156,2.156,0,0,1,1.817.846,2.873,2.873,0,0,1,.479,2.23q-.353,2.093-.666,4.175a.337.337,0,0,1-.322.279Zm17.043,9.514c-.8-.018-1.6-.033-2.39-.05.236-2.038,1.343-10.244,1.6-11.951.8-.008,1.6-.015,2.4-.015-.312,2.111-1.393,10.215-1.606,12.015m6.5-16.69a3.162,3.162,0,0,1,.5,2.3c-.761,5.434-1.556,11.282-2.291,17.146a3.071,3.071,0,0,1-2.771,2.839H29.9c-2.331-.05-4.74-.135-7.165-.245a2.445,2.445,0,0,1-1.851-1.006,3.141,3.141,0,0,1-.573-2.206c.6-5.229,1.317-10.7,2.238-16.722a3.336,3.336,0,0,1,2.94-2.925c2.384-.05,4.817-.093,7.208-.117a2.2,2.2,0,0,1,1.818.936m13.816.061a2.306,2.306,0,0,0-1.826-.965c-1.537-.015-3.067-.042-4.6-.05.06-.448.221-1.689.221-1.689A3.272,3.272,0,0,0,41.6,57.93a2.21,2.21,0,0,0-1.807-.954h-2.07a.3.3,0,0,0-.3.271c-.364,2.7-2.62,19.2-3.338,24.784a3.18,3.18,0,0,0,.516,2.248,2.249,2.249,0,0,0,1.843.989c.582,0,5.382-.017,7.147-.043A3.256,3.256,0,0,0,46.466,82.3c.982-6.583,1.741-12.008,2.392-17.07a3.122,3.122,0,0,0-.532-2.28Zm-6.44,16.7c-.793.008-1.588.008-2.381.008,0,0,1.485-10.891,1.646-12.124.778,0,2.4.009,2.4.009-.279,2.094-1.428,10.383-1.674,12.108Z" transform="translate(0 -46.87)" fill="#c54200" fill-rule="evenodd"/>
    <path id="Контур_14114" data-name="Контур 14114" d="M24.459,63.408c-1.42,8.668-2.467,16.393-3.2,23.618-.593-.034-1.192-.061-1.776-.093a1.88,1.88,0,0,1-1.368-.762,2.387,2.387,0,0,1-.456-1.733c.768-7.208,1.875-14.829,3.388-23.263.6-.032,1.909-.093,1.909-.093a1.418,1.418,0,0,1,1.184.592,2.293,2.293,0,0,1,.32,1.733m54.469,5.652c-.159,1.131-.322,2.256-.481,3.347-.879-.018-1.757-.026-2.629-.034a1.039,1.039,0,0,1-.971-1.007,2.42,2.42,0,0,1,.128-.607.351.351,0,0,0-.061-.288.3.3,0,0,0-.253-.143l-2.923-.067a.312.312,0,0,0-.331.286c-.04.331-.506,3.094-.564,3.474a.327.327,0,0,0,.076.28.288.288,0,0,0,.235.11h4.926a1.673,1.673,0,0,1,1.328.617,1.742,1.742,0,0,1,.364,1.546,45.513,45.513,0,0,1-1.277,7.106,3.414,3.414,0,0,1-2.5,2.466c-3.338.382-7.2.584-7.2.584a1.454,1.454,0,0,1-1.292-.566,2.1,2.1,0,0,1-.3-1.623c.229-1.317.447-2.62.668-3.92q1.356-.052,2.762-.1a.925.925,0,0,1,.869.988,5.633,5.633,0,0,1-.091.693.361.361,0,0,0,.085.279.32.32,0,0,0,.253.11c.971-.051,1.943-.1,2.922-.151a.349.349,0,0,0,.305-.278c.111-.584.448-2.477.6-3.364a.4.4,0,0,0-.075-.279.315.315,0,0,0-.262-.111c-.861.026-4.809.044-4.809.044a1.7,1.7,0,0,1-1.774-1.961c.2-2,1.117-7.7,1.157-8.112a2.272,2.272,0,0,1,2.163-2.087c3.179.067,5.739.262,7.04.43a2.437,2.437,0,0,1,1.48.861,1.874,1.874,0,0,1,.438,1.48M62.687,84.71c1.166-6.641,2.062-12.742,2.738-18.632l-2.011-.085a2.321,2.321,0,0,0-2.138,2.172c-.567,4.606-1.244,9.354-2.07,14.509a.336.336,0,0,1-.3.28c-.946.025-1.9.058-2.856.075a.307.307,0,0,1-.238-.11.3.3,0,0,1-.075-.262c.811-5.137,1.48-9.853,2.052-14.424a2.419,2.419,0,0,0-.421-1.765,1.744,1.744,0,0,0-1.343-.727c-.608-.009-1.209-.026-1.817-.034-.693,5.736-1.547,11.888-2.669,19.308a2.331,2.331,0,0,0,.345,1.733,1.506,1.506,0,0,0,1.242.643h.067c2.383-.078,4.791-.178,7.158-.305a2.822,2.822,0,0,0,2.341-2.375M9.527,70.328a.305.305,0,0,0-.3.253c-.186.762-1.571,10.36-1.622,11.534a.328.328,0,0,0,.3.346c.413.026,2.678.161,3.278.187a.338.338,0,0,0,.34-.27c.151-.931.565-3.193.626-3.641a.3.3,0,0,0-.068-.264.271.271,0,0,0-.229-.117l-.6-.018a.86.86,0,0,1-.61-.337,1.154,1.154,0,0,1-.254-.88c.128-.9.254-1.722.389-2.6l4.454-.009a1.093,1.093,0,0,1,.852.27,1.14,1.14,0,0,1,.136.889c-.061.507-.8,6.743-1.174,9.016-.239,1.428-.838,2.019-2.079,2.027h-.111a57.479,57.479,0,0,1-7.115-.634A2.657,2.657,0,0,1,4.152,85.4a3.165,3.165,0,0,1-.48-1.826A137.011,137.011,0,0,1,5.591,68.918a3.455,3.455,0,0,1,2.788-2.384c2.391-.244,5.475-.372,7.284-.372a1.594,1.594,0,0,1,1.317.592,2.243,2.243,0,0,1,.337,1.714c-.21,1.293-.422,2.6-.617,3.887l-2.721.018a1.015,1.015,0,0,1-.946-1.021c.009-.093.161-1.058.161-1.058s-3.1.009-3.658.035ZM33,69.889c-1.012.009-2.027.009-3.032.009a.325.325,0,0,0-.305.271c-.151.853-1.562,11.348-1.681,12.624a.393.393,0,0,0,.085.244.283.283,0,0,0,.221.111c1.006.015,2.009.041,3.014.058h.01a.323.323,0,0,0,.313-.3c.075-.835,1.477-11.356,1.689-12.648A.3.3,0,0,0,33.239,70a.249.249,0,0,0-.239-.11m4.411-1.818h-.007a2.524,2.524,0,0,0-.372-1.817,1.574,1.574,0,0,0-1.293-.675c-2.407.015-4.833.068-7.225.109a2.7,2.7,0,0,0-2.332,2.393c-.912,6.007-1.64,11.458-2.222,16.689a2.4,2.4,0,0,0,.438,1.724,1.772,1.772,0,0,0,1.378.76c2.417.11,4.824.194,7.147.244h.044a2.432,2.432,0,0,0,2.154-2.28c.736-5.865,1.529-11.7,2.289-17.146m13.842.058C50.6,73.185,49.85,78.6,48.87,85.175A2.615,2.615,0,0,1,46.6,87.55c-2.334.032-4.751.049-7.141.032a1.636,1.636,0,0,1-1.343-.718,2.487,2.487,0,0,1-.389-1.8c.71-5.551,2.94-21.868,3.288-24.461h1.8a1.565,1.565,0,0,1,1.3.7,2.482,2.482,0,0,1,.4,1.826s-.195,1.477-.27,2.07a.358.358,0,0,0,.075.253.3.3,0,0,0,.235.12c1.657,0,3.306.015,4.962.05a1.62,1.62,0,0,1,1.326.7,2.506,2.506,0,0,1,.415,1.808m-4.327,1.742s-2.154-.017-3.026-.017a.333.333,0,0,0-.311.288c-.067.575-1.732,12.784-1.732,12.784a.333.333,0,0,0,.313.372c1,0,2-.009,3.006-.017a.325.325,0,0,0,.313-.27c.111-.753,1.6-11.518,1.748-12.767a.29.29,0,0,0-.076-.253.3.3,0,0,0-.235-.119" transform="translate(-3.021 -49.854)" fill="#ee7100" fill-rule="evenodd"/>
  </g>
</svg>
