<svg xmlns="http://www.w3.org/2000/svg" width="89.467" height="16.765" viewBox="0 0 89.467 16.765">
  <path id="logo--red--ru" d="M42.011,9.937h-2.56l1.28-3.287Zm.863,2.215.571,1.469h2.817L42.026,3.143H39.479L35.242,13.621h2.773l.573-1.469Zm-12.122,1.47V7.395L28,10.684,25.254,7.395v6.227H22.5V3.144h2.716L28,6.747l2.787-3.6h2.716V13.622ZM48.013,3.144V13.622h2.755V5.578h3.851V3.144Zm15.4,6.373v4.1h2.754V3.144H63.41v3.91H59.319V3.144H56.565V13.622h2.754v-4.1Zm20.07,4.1V5.578H80.262V3.144h9.2V5.578H86.235v8.044ZM75.571,7.65v5.972h2.756V3.144H75.948l-4.31,5.909V3.144H68.883V13.622h2.3ZM0,5.012A4.951,4.951,0,0,1,1.485,1.47,5.047,5.047,0,0,1,5.058,0H16.737V2.547H5.058A2.484,2.484,0,0,0,3.3,3.271a2.441,2.441,0,0,0-.732,1.74L2.555,9.286a2.5,2.5,0,0,1-2.1,2.22L0,11.575ZM0,16.765V14.218H11.679a2.474,2.474,0,0,0,1.754-.725,2.426,2.426,0,0,0,.733-1.739l0-4.057a2.49,2.49,0,0,1,2.114-2.438l.454-.068v6.564a4.948,4.948,0,0,1-1.485,3.541,5.041,5.041,0,0,1-3.573,1.471Zm9.911-5.189V8.33L8.368,10.106,6.826,8.33v3.245H4.782V5.189H6.718l1.65,2.053,1.65-2.053h1.937v6.386Z" fill="#e6000e" fill-rule="evenodd"/>
</svg>
