<svg id="Сгруппировать_25689" data-name="Сгруппировать 25689" xmlns="http://www.w3.org/2000/svg" xmlns:xlink="http://www.w3.org/1999/xlink" width="90" height="24" viewBox="0 0 90 24">
  <defs>
    <clipPath id="clip-path">
      <rect id="Прямоугольник_1359" data-name="Прямоугольник 1359" width="90" height="24" fill="none"/>
    </clipPath>
  </defs>
  <g id="Сгруппировать_25688" data-name="Сгруппировать 25688" clip-path="url(#clip-path)">
    <path id="Контур_14116" data-name="Контур 14116" d="M118.922,53.656a.677.677,0,0,1-.656.66h-5.024a.725.725,0,0,1-.7-.66V45.939c.021-.166.1-.52.673-.577h5.052c.572.057.633.411.654.577Zm1.74-11.2H110.8a2.815,2.815,0,0,0-2.9,2.538v9.554a2.935,2.935,0,0,0,2.9,2.677h9.858a2.935,2.935,0,0,0,2.9-2.677V44.993a2.815,2.815,0,0,0-2.9-2.538m-39.9,2.908H76.358V42.455H89.812v2.908H85.4V57.224H80.765Zm-5.8,0V42.455H62.9V57.224l12.222,0,0-2.9H67.555V51.153h7.41v-2.9h-7.41v-2.89Zm26.907,2.289c0,.32-.08.6-.656.6H95.842v-2.9h5.381c.655,0,.65.426.65.692Zm1.285,3.831a2.9,2.9,0,0,0,2.89-2.7V45.132a2.951,2.951,0,0,0-2.911-2.682H91.2V57.224h4.639V51.482h1.846l3.015,5.742h5.335l-3.591-5.742ZM53.3,57.224l3.108-9.277v9.277h4.639V42.455H54.786L51.77,49.839l-3.015-7.385H42.492V57.224h4.639V47.947l3.131,9.277Z" transform="translate(-37.853 -37.839)" fill="#ffde00" fill-rule="evenodd"/>
  </g>
</svg>
