<svg xmlns="http://www.w3.org/2000/svg" xmlns:xlink="http://www.w3.org/1999/xlink" width="102.142" height="32.813" viewBox="0 0 102.142 32.813">
  <defs>
    <linearGradient id="linear-gradient" x1="0.477" y1="0.425" x2="0.61" y2="0.865" gradientUnits="objectBoundingBox">
      <stop offset="0" stop-color="#00a238"/>
      <stop offset="0.78" stop-color="#99c21c"/>
      <stop offset="1" stop-color="#99c21c"/>
    </linearGradient>
    <linearGradient id="linear-gradient-2" x1="0.331" y1="0.113" x2="0.91" y2="0.976" xlink:href="#linear-gradient"/>
  </defs>
  <g id="okey" transform="translate(0.5 0.512)">
    <path id="Контур_6257" data-name="Контур 6257" d="M12177.452,645.889c-.011,0-10.235-4.436-10.115-13.943.1-7.383,3.565-9.541,3.565-9.541a15.115,15.115,0,0,1,4.564,3.136,15.57,15.57,0,0,1,2.6,3.911,17.646,17.646,0,0,1,5.918-9.355,22.3,22.3,0,0,1,15.185-6,24.726,24.726,0,0,1,1.729,8.915c.128,12.028-7.235,20.715-18.691,22.376-.769.113-1.542.215-2.314.3-.81.088-1.624.159-2.434.2Zm31.957-3.075c-4.781-.234-7.3-3.56-6.276-8.427a9.055,9.055,0,0,1,3.386-5.548,9.177,9.177,0,0,1,6.222-1.844q3.845.187,5.518,2.717a6.965,6.965,0,0,1,.825,5.5,9.322,9.322,0,0,1-3.549,5.794,9.058,9.058,0,0,1-5.587,1.822C12209.77,642.827,12209.59,642.823,12209.409,642.814Zm-.073-10.906a6.5,6.5,0,0,0-1.228,2.763,5.922,5.922,0,0,0-.013,2.912,2.092,2.092,0,0,0,2.089,1.553,2.98,2.98,0,0,0,2.449-1.084,6.456,6.456,0,0,0,1.463-3.082,5,5,0,0,0-.1-2.876,2.177,2.177,0,0,0-2.072-1.427c-.06,0-.116,0-.171,0A3,3,0,0,0,12209.336,631.908Zm30.42,10.607v0c-.578,0-1.054-.01-1.423-.029a6.925,6.925,0,0,1-.888-.092,1.3,1.3,0,0,1-.457-.151c-.084-.057-.157-.128-.124-.215l-.021,0,.575-3.167.424-2.332.625-3.461.389-2.156.56-3.106a.48.48,0,0,1,.184-.144,1.939,1.939,0,0,1,.53-.151,9.349,9.349,0,0,1,.938-.057h9.8c.16.083.24.284.24.606,0,.068-.009.187-.022.357s-.044.36-.076.573-.077.428-.134.656a3.675,3.675,0,0,1-.206.622,1.705,1.705,0,0,1-.3.469.514.514,0,0,1-.33.175h-6.147l-.394,2.156h5.179c.208.055.315.258.315.623,0,.068-.01.187-.025.357s-.04.362-.072.572-.08.431-.135.656a4.153,4.153,0,0,1-.206.622,1.708,1.708,0,0,1-.3.469.561.561,0,0,1-.268.163h-5.107l-.43,2.332h6.179c.286,0,.434.227.434.682,0,.071-.009.2-.026.374s-.04.381-.072.6-.079.452-.133.689a4.556,4.556,0,0,1-.207.655,1.773,1.773,0,0,1-.3.492.56.56,0,0,1-.226.163Zm22.437-.031a4.669,4.669,0,0,1-.721-.092.951.951,0,0,1-.37-.151.25.25,0,0,1-.054-.076l1.323-7.511-6.218,7.374v0s0,0,0,0l-.187.223a1.545,1.545,0,0,1-.422.139,5.864,5.864,0,0,1-.79.092c-.324.021-.726.029-1.211.029s-.906-.009-1.222-.029a4.993,4.993,0,0,1-.751-.092.984.984,0,0,1-.385-.151.177.177,0,0,1-.052-.074l2.653-14.371a.586.586,0,0,1,.066-.061,1.362,1.362,0,0,1,.431-.151,5.379,5.379,0,0,1,.762-.094c.13-.007.276-.012.435-.017h1.475c.16.005.306.01.431.017a4.534,4.534,0,0,1,.723.094.932.932,0,0,1,.371.151.194.194,0,0,1,.066.185l-1.331,7.509,6.464-7.733a1.58,1.58,0,0,1,.359-.112,5.9,5.9,0,0,1,.792-.094c.134-.007.288-.012.454-.017h1.528c.167.005.317.01.452.017a4.846,4.846,0,0,1,.745.094.953.953,0,0,1,.386.151.187.187,0,0,1,.072.112l-2.64,14.3a.317.317,0,0,1-.1.09,1.317,1.317,0,0,1-.431.151,5.42,5.42,0,0,1-.761.092c-.311.021-.7.029-1.167.029S12262.5,642.5,12262.192,642.483Zm-30.958,0a6.925,6.925,0,0,1-.888-.092,1.31,1.31,0,0,1-.457-.151c-.019-.014-.037-.028-.057-.045l-.071-.17-2.722-6.609-1.206,6.682a.337.337,0,0,1-.131.142,1.423,1.423,0,0,1-.452.151,5.729,5.729,0,0,1-.79.092c-.321.021-.724.029-1.211.029s-.907-.009-1.219-.029a4.943,4.943,0,0,1-.751-.092.923.923,0,0,1-.382-.151.179.179,0,0,1-.069-.215l-.019.033,2.588-14.278c.011-.016.014-.031.029-.043a1.023,1.023,0,0,1,.384-.149,4.649,4.649,0,0,1,.75-.094c.318-.019.723-.029,1.222-.029s.886.01,1.211.029a5.5,5.5,0,0,1,.791.094,1.5,1.5,0,0,1,.449.149.306.306,0,0,1,.156.2l-.952,5.267,5.11-5.414a.843.843,0,0,1,.09-.057,2.158,2.158,0,0,1,.525-.149,6.817,6.817,0,0,1,.875-.094c.353-.019.793-.029,1.324-.029s.945.01,1.28.029a4.8,4.8,0,0,1,.774.094.8.8,0,0,1,.366.149.155.155,0,0,1,.027.159l-5.726,6.079,3.718,8.05a.372.372,0,0,1-.217.215,1.935,1.935,0,0,1-.529.151,8.21,8.21,0,0,1-.937.092c-.385.021-.865.029-1.439.029S12231.61,642.5,12231.234,642.483Zm29.189-13.545a.773.773,0,0,1-.238-.06.358.358,0,0,1-.127-.1.272.272,0,0,1-.047-.145l0,.014.943-4.379a.316.316,0,0,1,.033-.052.617.617,0,0,1,.269-.151,2.341,2.341,0,0,1,.5-.092c.21-.019.477-.029.794-.029s.594.01.806.029a2.355,2.355,0,0,1,.506.092.7.7,0,0,1,.277.151.256.256,0,0,1,.072.161l-2.666,4.337a.767.767,0,0,1-.178.168.66.66,0,0,1-.224.06,3.079,3.079,0,0,1-.715,0Zm-40.472,0a.741.741,0,0,1-.23-.06.318.318,0,0,1-.132-.1.281.281,0,0,1-.046-.145l0,.014.942-4.379a.4.4,0,0,1,.033-.052.642.642,0,0,1,.269-.151,2.383,2.383,0,0,1,.5-.092c.207-.019.472-.029.79-.029s.6.01.8.029a2.3,2.3,0,0,1,.506.092.742.742,0,0,1,.281.151.255.255,0,0,1,.071.161l-2.666,4.337a.854.854,0,0,1-.177.168.686.686,0,0,1-.227.06,2.439,2.439,0,0,1-.354.021A2.613,2.613,0,0,1,12219.952,628.938Z" transform="translate(-12167.336 -614.088)" fill="#ee1e23" stroke="rgba(0,0,0,0)" stroke-width="1"/>
    <path id="Контур_6253" data-name="Контур 6253" d="M130.224,253.066a28.755,28.755,0,0,0-1.467,4.217h0c-.014.052-.025.106-.043.158h0c-.125.367-.2.487-.235.457h0a19.66,19.66,0,0,0,.468,9.679h0c.027.012,1.182-.016,1.7-.08h0a20.057,20.057,0,0,0,17.63-19.853,19.83,19.83,0,0,0-.857-5.786,20.151,20.151,0,0,0-17.2,11.208Z" transform="translate(-118.899 -236.394)" fill-rule="evenodd" fill="url(#linear-gradient)"/>
    <path id="Контур_6254" data-name="Контур 6254" d="M107.357,269.947a12.974,12.974,0,0,0,7.667,11.82h0a19.66,19.66,0,0,1-.468-9.679h0a7.372,7.372,0,0,1,.141-1.879h0c.126-.856.265-1.625.424-2.346h0a15.127,15.127,0,0,0-5.673-4.957A12.862,12.862,0,0,0,107.357,269.947Z" transform="translate(-104.975 -250.584)" fill-rule="evenodd" fill="url(#linear-gradient-2)"/>
  </g>
</svg>
