<svg xmlns="http://www.w3.org/2000/svg" width="102.842" height="21.623" viewBox="0 0 102.842 21.623">
  <path id="ozon" d="M12,18.64a5.9,5.9,0,0,0,5.154-4.967A5.884,5.884,0,0,0,10.437,7.2,5.894,5.894,0,0,0,5.283,12.17,5.885,5.885,0,0,0,12,18.64ZM.058,14.025a11.023,11.023,0,0,1,12.3-11.862,11.056,11.056,0,0,1,10.015,9.654,11.024,11.024,0,0,1-12.306,11.86A11.056,11.056,0,0,1,.056,14.024ZM25.834,5.637A2.553,2.553,0,0,1,28.4,2.593H44.818a.725.725,0,0,1,.6,1.165L34.06,18.2h8.9a2.552,2.552,0,0,1,2.563,3.044,2.663,2.663,0,0,1-2.661,2H25.028a.719.719,0,0,1-.6-1.155L35.8,7.638H28.5A2.664,2.664,0,0,1,25.834,5.637Zm71.775-.455a2.618,2.618,0,0,1,5.234-.067V22.522a.756.756,0,0,1-1.221.568L87.456,12.259v8.471a2.618,2.618,0,0,1-5.234-.066V3.32a.756.756,0,0,1,1.221-.569L97.608,13.582v-8.4ZM62.775,2.109c8.671,0,15.7,4.84,15.7,10.809s-7.031,10.809-15.7,10.809-15.7-4.839-15.7-10.809S54.1,2.109,62.775,2.109ZM73.242,12.917c0-2.721-4.476-5.763-10.468-5.763S52.306,10.2,52.306,12.917s4.476,5.764,10.469,5.764S73.242,15.638,73.242,12.917Z" transform="translate(-0.001 -2.109)" fill="#014fdb"/>
</svg>
