<svg id="Логотип._Светлая_тема._Градиент" data-name="Логотип. Светлая тема. Градиент" xmlns="http://www.w3.org/2000/svg" xmlns:xlink="http://www.w3.org/1999/xlink" width="125.752" height="28.481" viewBox="0 0 125.752 28.481">
  <defs>
    <clipPath id="clip-path">
      <rect id="Прямоугольник_776" data-name="Прямоугольник 776" width="29.455" height="28.481" transform="translate(0)" fill="none"/>
    </clipPath>
    <linearGradient id="linear-gradient" x1="0.314" y1="1.154" x2="1" y2="0.364" gradientUnits="objectBoundingBox">
      <stop offset="0" stop-color="#00e6e6"/>
      <stop offset="0.49" stop-color="#0059b3"/>
    </linearGradient>
    <linearGradient id="linear-gradient-2" x1="1.387" y1="1.757" x2="1.941" y2="1.101" gradientUnits="objectBoundingBox">
      <stop offset="0" stop-color="#00bfff"/>
      <stop offset="1" stop-color="#80ffea"/>
    </linearGradient>
    <linearGradient id="linear-gradient-3" x1="-32.557" y1="-1.442" x2="-32.311" y2="-1.17" gradientUnits="objectBoundingBox">
      <stop offset="0" stop-color="#e6fbff"/>
      <stop offset="1" stop-color="#fff"/>
    </linearGradient>
  </defs>
  <path id="Контур_14072" data-name="Контур 14072" d="M194.327,12.492H197.9V27.986h1.164V11.55h-5.731c0,.623-.045,7.108-.508,12.205-.192,2.21-.607,3.218-1.561,3.218a1.242,1.242,0,0,1-.259,0l.071,1.083a1.16,1.16,0,0,0,.375.049c1.423,0,2.141-1.22,2.4-4.235C194.305,18.632,194.327,12.973,194.327,12.492Zm9.607,14.853c-1.115,0-1.838-.942-1.838-2.577,0-2.02.932-2.891,2.859-2.891h1.258v3.192C205.8,26.306,205.032,27.345,203.935,27.345Zm2.6.641h1a8.4,8.4,0,0,1-.259-2.14V19.529c0-2.3-1.088-3.36-3.024-3.36a3.516,3.516,0,0,0-2.765,1.171l.3,1.039a2.961,2.961,0,0,1,2.462-1.269c1.285,0,1.958.76,1.958,2.529v1.45h-1.285c-2.533,0-3.907,1.286-3.907,3.775,0,2.109,1.1,3.351,2.676,3.351a2.853,2.853,0,0,0,2.56-1.768,6.456,6.456,0,0,0,.285,1.538Zm5.772,0c2.23,0,3.675-1.052,3.675-3.333a2.694,2.694,0,0,0-2.19-2.8,2.7,2.7,0,0,0,1.65-2.652c0-1.839-1.115-2.807-3.185-2.807H209.8v11.6Zm-.094-10.733c1.338,0,2.185.526,2.185,2a2.018,2.018,0,0,1-2.185,2.3h-1.338v-4.3Zm.071,5.106c1.7,0,2.609.69,2.609,2.369,0,1.768-1.075,2.44-2.582,2.44H210.87v-4.81Zm6.748-.367,4.077,5.994h1.213L220.188,21.8l3.858-5.38H222.98l-3.934,5.451V16.4h-1.093V27.986h1.093Zm8.92,5.358c-1.12,0-1.838-.942-1.838-2.577,0-2.02.932-2.891,2.859-2.891h1.271v3.192c-.446,1.233-1.209,2.272-2.3,2.272Zm2.6.641h1a8.63,8.63,0,0,1-.254-2.14V19.529c0-2.3-1.093-3.36-3.024-3.36a3.53,3.53,0,0,0-2.77,1.171l.277,1.039a2.956,2.956,0,0,1,2.466-1.269c1.28,0,1.954.76,1.954,2.529v1.45h-1.28c-2.538,0-3.907,1.286-3.907,3.775,0,2.109,1.093,3.351,2.676,3.351a2.853,2.853,0,0,0,2.56-1.768,6.95,6.95,0,0,0,.294,1.538Z" transform="translate(-105.809 -6.255)" fill="#21201f"/>
  <path id="Контур_14073" data-name="Контур 14073" d="M39.218,32.431h-.932V22.316H32.839v.99c0,3.094-.12,6.666-1.186,9.124H30.93V36.18h1.628V33.9h5.036V36.18h1.632Zm7.886.707-.424-1.379a4.073,4.073,0,0,1-2.3.782c-1.441,0-2.186-1.379-2.186-3.979H47.1V27.537c0-3.93-1.28-5.38-3.229-5.38-2.5,0-3.541,2.71-3.541,6.436,0,3.567,1.494,5.468,3.907,5.468A4.644,4.644,0,0,0,47.1,33.138ZM28.089,22.316v4.92H25.413v-4.92H23.58V33.9H25.4V28.718h2.676V33.9h1.784V22.316ZM53.852,33.9h1.971L52.5,27.767l2.913-5.451H53.571l-2.819,5.358V22.316H48.941V33.9h1.811V28.156Zm6.244.159a3.551,3.551,0,0,0,2.44-.884l-.415-1.326a3.009,3.009,0,0,1-1.976.712c-1.467,0-2.168-1.658-2.168-4.549s.932-4.368,2.23-4.368a3.136,3.136,0,0,1,1.918.809l.259-1.7a3.776,3.776,0,0,0-2.168-.6c-2.743,0-4.166,2.321-4.166,5.955,0,3.952,1.521,5.95,4.032,5.95ZM36.488,32.431H33.366c.986-2.458,1.106-6.017,1.106-8.457v-.208h2.02Zm7.35-8.8c1.044,0,1.369,1.446,1.369,3.426H42.215C42.331,24.987,42.723,23.629,43.838,23.629Z" transform="translate(-13.063 -12.172)" fill="#21201f"/>
  <path id="Контур_14074" data-name="Контур 14074" d="M6.4,21.687v6.3H8.185V11.55H5.508c-2.627,0-4.839,1.724-4.839,5.172,0,2.458.977,3.793,2.444,4.527L0,27.986H2.07l2.837-6.3Zm0-1.468H5.446c-1.561,0-2.837-.853-2.837-3.5,0-2.732,1.4-3.678,2.837-3.678H6.4Z" transform="translate(0 -6.255)" fill="#21201f"/>
  <g id="Иконка._Градиент" data-name="Иконка. Градиент" transform="translate(53.162)">
    <g id="Сгруппировать_13067" data-name="Сгруппировать 13067" transform="translate(0)" clip-path="url(#clip-path)">
      <path id="Back" d="M134.347,30.018c-6.017-5.376-6.739-8.32-6.628-9.818a49.6,49.6,0,0,0,.1,5.773c.268,4.991.4,7.489,2.043,8.961s4.17,1.326,9.21,1.079a51.709,51.709,0,0,0,5.8-.486C143.4,35.792,140.369,35.389,134.347,30.018Z" transform="translate(-123.893 -11.081)" fill="url(#linear-gradient)"/>
      <path id="Front" d="M147.212,8.91c-1.65-1.472-4.17-1.326-9.21-1.079s-7.556.393-9.041,2.025a5.3,5.3,0,0,0-1.2,3.355c-.116,1.481.6,4.421,6.628,9.818s9.05,5.778,10.544,5.508A5.321,5.321,0,0,0,148.166,27c1.485-1.636,1.338-4.133,1.088-9.129S148.858,10.382,147.212,8.91Z" transform="translate(-123.93 -4.092)" fill="url(#linear-gradient-2)"/>
      <path id="Fold" d="M141.759,33.32l-.04-.283c-.669-4.5-1-6.755-2.64-8.214s-3.929-1.552-8.515-1.742h-.286a2.686,2.686,0,0,1-1.891-.887,2.638,2.638,0,0,1-.669-1.964,2.981,2.981,0,0,0,0,.995,6.955,6.955,0,0,0,.665,2.034,25.124,25.124,0,0,0,5.767,7.024,25.339,25.339,0,0,0,7.649,4.951,7.244,7.244,0,0,0,2.11.442,3.3,3.3,0,0,0,.995-.119,2.7,2.7,0,0,1-2.055-.452A2.649,2.649,0,0,1,141.759,33.32Z" transform="translate(-123.892 -11.098)" fill="url(#linear-gradient-3)"/>
    </g>
  </g>
</svg>
